<svg width="1921" height="1080" viewBox="0 0 1921 1080" fill="none" xmlns="http://www.w3.org/2000/svg">
<rect width="1920" height="1080" transform="translate(0.807495)" fill="url(#paint0_linear_7_296)"/>
<g clip-path="url(#clip0_7_296)">
<rect x="77.1553" y="42.9457" width="1767.3" height="994.109" rx="47.7247" fill="#1F2128"/>
<path d="M244.213 117.748V96.7417H250.014C257.417 96.7417 261.118 100.155 261.118 106.981C261.118 110.223 260.087 112.831 258.027 114.803C255.976 116.766 253.227 117.748 249.78 117.748H244.213ZM246.674 98.9683V115.521H249.809C252.563 115.521 254.707 114.784 256.24 113.309C257.773 111.834 258.54 109.745 258.54 107.04C258.54 101.659 255.678 98.9683 249.956 98.9683H246.674ZM280.776 117.748H278.051L275.825 111.859H266.918L264.824 117.748H262.084L270.141 96.7417H272.69L280.776 117.748ZM275.019 109.647L271.723 100.697C271.616 100.404 271.508 99.9351 271.401 99.2905H271.342C271.245 99.8862 271.132 100.355 271.005 100.697L267.739 109.647H275.019ZM282.9 116.898V113.998C283.232 114.291 283.627 114.554 284.086 114.789C284.555 115.023 285.043 115.223 285.551 115.389C286.069 115.545 286.586 115.667 287.104 115.755C287.622 115.843 288.1 115.887 288.54 115.887C290.053 115.887 291.181 115.609 291.923 115.052C292.675 114.486 293.051 113.675 293.051 112.621C293.051 112.054 292.924 111.561 292.67 111.141C292.426 110.721 292.084 110.34 291.645 109.999C291.206 109.647 290.683 109.315 290.078 109.002C289.482 108.68 288.837 108.343 288.144 107.992C287.412 107.621 286.728 107.245 286.093 106.864C285.458 106.483 284.907 106.063 284.438 105.604C283.969 105.145 283.598 104.627 283.325 104.051C283.061 103.465 282.929 102.782 282.929 102C282.929 101.043 283.139 100.213 283.559 99.5103C283.979 98.7974 284.531 98.2114 285.214 97.7524C285.898 97.2935 286.674 96.9517 287.543 96.7271C288.422 96.5024 289.316 96.3901 290.224 96.3901C292.294 96.3901 293.803 96.6392 294.75 97.1372V99.9058C293.51 99.0464 291.918 98.6167 289.975 98.6167C289.438 98.6167 288.901 98.6753 288.364 98.7925C287.827 98.8999 287.348 99.0806 286.928 99.3345C286.508 99.5884 286.167 99.9155 285.903 100.316C285.639 100.716 285.507 101.205 285.507 101.781C285.507 102.318 285.605 102.782 285.8 103.172C286.005 103.563 286.303 103.919 286.694 104.242C287.084 104.564 287.558 104.876 288.115 105.179C288.681 105.482 289.331 105.814 290.063 106.175C290.815 106.546 291.528 106.937 292.202 107.347C292.875 107.757 293.466 108.211 293.974 108.709C294.482 109.208 294.882 109.759 295.175 110.365C295.478 110.97 295.629 111.664 295.629 112.445C295.629 113.48 295.424 114.359 295.014 115.082C294.614 115.794 294.067 116.375 293.374 116.825C292.69 117.274 291.899 117.596 291 117.792C290.102 117.997 289.155 118.099 288.159 118.099C287.827 118.099 287.417 118.07 286.928 118.011C286.44 117.962 285.942 117.884 285.434 117.777C284.926 117.679 284.443 117.557 283.984 117.411C283.535 117.254 283.173 117.083 282.9 116.898ZM315.61 117.748H313.149V108.167H302.28V117.748H299.819V96.7417H302.28V105.956H313.149V96.7417H315.61V117.748ZM321.118 117.748V96.7417H327.094C328.911 96.7417 330.351 97.186 331.416 98.0747C332.48 98.9634 333.012 100.121 333.012 101.546C333.012 102.738 332.69 103.773 332.045 104.652C331.401 105.531 330.512 106.156 329.379 106.527V106.585C330.795 106.751 331.928 107.289 332.778 108.197C333.627 109.095 334.052 110.267 334.052 111.712C334.052 113.509 333.408 114.964 332.119 116.078C330.83 117.191 329.204 117.748 327.241 117.748H321.118ZM323.579 98.9683V105.75H326.098C327.446 105.75 328.505 105.428 329.277 104.784C330.048 104.129 330.434 103.211 330.434 102.03C330.434 99.9888 329.091 98.9683 326.406 98.9683H323.579ZM323.579 107.962V115.521H326.918C328.364 115.521 329.482 115.179 330.273 114.496C331.074 113.812 331.474 112.875 331.474 111.683C331.474 109.203 329.785 107.962 326.406 107.962H323.579ZM346.782 118.099C343.803 118.099 341.416 117.118 339.619 115.155C337.832 113.192 336.938 110.638 336.938 107.494C336.938 104.115 337.851 101.419 339.677 99.4077C341.503 97.396 343.989 96.3901 347.133 96.3901C350.034 96.3901 352.368 97.3667 354.135 99.3198C355.913 101.273 356.801 103.827 356.801 106.981C356.801 110.409 355.893 113.119 354.077 115.111C352.26 117.103 349.829 118.099 346.782 118.099ZM346.958 98.6167C344.75 98.6167 342.958 99.4126 341.582 101.004C340.205 102.596 339.516 104.686 339.516 107.274C339.516 109.862 340.185 111.947 341.523 113.529C342.871 115.101 344.624 115.887 346.782 115.887C349.086 115.887 350.903 115.135 352.231 113.631C353.559 112.127 354.223 110.023 354.223 107.318C354.223 104.544 353.579 102.401 352.29 100.887C351 99.3735 349.223 98.6167 346.958 98.6167ZM376.459 117.748H373.735L371.508 111.859H362.602L360.507 117.748H357.768L365.825 96.7417H368.374L376.459 117.748ZM370.703 109.647L367.407 100.697C367.299 100.404 367.192 99.9351 367.084 99.2905H367.026C366.928 99.8862 366.816 100.355 366.689 100.697L363.422 109.647H370.703ZM394.624 117.748H391.694L388.178 111.859C387.856 111.312 387.543 110.848 387.241 110.467C386.938 110.077 386.625 109.759 386.303 109.515C385.991 109.271 385.649 109.095 385.278 108.988C384.917 108.871 384.506 108.812 384.047 108.812H382.026V117.748H379.565V96.7417H385.834C386.752 96.7417 387.597 96.8589 388.369 97.0933C389.15 97.3179 389.824 97.6646 390.39 98.1333C390.966 98.6021 391.416 99.188 391.738 99.8911C392.06 100.584 392.221 101.4 392.221 102.337C392.221 103.07 392.109 103.744 391.884 104.359C391.669 104.964 391.357 105.506 390.947 105.985C390.546 106.463 390.058 106.874 389.482 107.215C388.916 107.547 388.276 107.806 387.563 107.992V108.05C387.915 108.207 388.217 108.387 388.471 108.592C388.735 108.788 388.984 109.022 389.218 109.295C389.453 109.569 389.682 109.881 389.907 110.233C390.141 110.575 390.4 110.975 390.683 111.434L394.624 117.748ZM382.026 98.9683V106.585H385.366C385.981 106.585 386.547 106.493 387.065 106.307C387.592 106.122 388.046 105.858 388.427 105.516C388.808 105.165 389.106 104.74 389.321 104.242C389.536 103.734 389.643 103.167 389.643 102.542C389.643 101.419 389.277 100.545 388.544 99.9204C387.822 99.2856 386.772 98.9683 385.395 98.9683H382.026ZM397.524 117.748V96.7417H403.325C410.727 96.7417 414.428 100.155 414.428 106.981C414.428 110.223 413.398 112.831 411.337 114.803C409.287 116.766 406.538 117.748 403.09 117.748H397.524ZM399.985 98.9683V115.521H403.12C405.874 115.521 408.017 114.784 409.55 113.309C411.083 111.834 411.85 109.745 411.85 107.04C411.85 101.659 408.989 98.9683 403.266 98.9683H399.985ZM437.456 98.9683H429.252V106.234H436.84V108.446H429.252V117.748H426.792V96.7417H437.456V98.9683ZM443.901 117.748H441.44V96.7417H443.901V117.748ZM466.372 117.748H463.354L452.543 101.004C452.27 100.584 452.045 100.145 451.87 99.686H451.782C451.86 100.135 451.899 101.097 451.899 102.572V117.748H449.438V96.7417H452.631L463.149 113.221C463.588 113.905 463.872 114.374 463.999 114.627H464.057C463.959 114.022 463.911 112.992 463.911 111.537V96.7417H466.372V117.748ZM488.139 117.748H485.415L483.188 111.859H474.282L472.187 117.748H469.448L477.504 96.7417H480.053L488.139 117.748ZM482.382 109.647L479.086 100.697C478.979 100.404 478.872 99.9351 478.764 99.2905H478.706C478.608 99.8862 478.496 100.355 478.369 100.697L475.102 109.647H482.382ZM508.178 117.748H505.161L494.35 101.004C494.077 100.584 493.852 100.145 493.676 99.686H493.588C493.667 100.135 493.706 101.097 493.706 102.572V117.748H491.245V96.7417H494.438L504.956 113.221C505.395 113.905 505.678 114.374 505.805 114.627H505.864C505.766 114.022 505.717 112.992 505.717 111.537V96.7417H508.178V117.748ZM527.983 116.869C526.43 117.689 524.497 118.099 522.182 118.099C519.194 118.099 516.801 117.137 515.004 115.213C513.208 113.29 512.309 110.765 512.309 107.64C512.309 104.281 513.32 101.566 515.341 99.4956C517.363 97.4253 519.926 96.3901 523.032 96.3901C525.024 96.3901 526.674 96.6782 527.983 97.2544V99.8765C526.479 99.0366 524.819 98.6167 523.002 98.6167C520.59 98.6167 518.632 99.4224 517.128 101.034C515.634 102.645 514.887 104.798 514.887 107.494C514.887 110.052 515.585 112.093 516.982 113.617C518.388 115.13 520.229 115.887 522.504 115.887C524.614 115.887 526.44 115.418 527.983 114.481V116.869ZM543.393 117.748H532.26V96.7417H542.924V98.9683H534.721V105.956H542.309V108.167H534.721V115.521H543.393V117.748ZM549.897 117.748H547.436V96.7417H549.897V117.748ZM570.493 117.748H567.563L564.047 111.859C563.725 111.312 563.413 110.848 563.11 110.467C562.807 110.077 562.495 109.759 562.172 109.515C561.86 109.271 561.518 109.095 561.147 108.988C560.786 108.871 560.375 108.812 559.917 108.812H557.895V117.748H555.434V96.7417H561.704C562.622 96.7417 563.466 96.8589 564.238 97.0933C565.019 97.3179 565.693 97.6646 566.259 98.1333C566.835 98.6021 567.285 99.188 567.607 99.8911C567.929 100.584 568.09 101.4 568.09 102.337C568.09 103.07 567.978 103.744 567.753 104.359C567.539 104.964 567.226 105.506 566.816 105.985C566.416 106.463 565.927 106.874 565.351 107.215C564.785 107.547 564.145 107.806 563.432 107.992V108.05C563.784 108.207 564.086 108.387 564.34 108.592C564.604 108.788 564.853 109.022 565.087 109.295C565.322 109.569 565.551 109.881 565.776 110.233C566.01 110.575 566.269 110.975 566.552 111.434L570.493 117.748ZM557.895 98.9683V106.585H561.235C561.85 106.585 562.417 106.493 562.934 106.307C563.461 106.122 563.916 105.858 564.296 105.516C564.677 105.165 564.975 104.74 565.19 104.242C565.405 103.734 565.512 103.167 565.512 102.542C565.512 101.419 565.146 100.545 564.414 99.9204C563.691 99.2856 562.641 98.9683 561.264 98.9683H557.895ZM581.567 118.099C578.588 118.099 576.201 117.118 574.404 115.155C572.617 113.192 571.723 110.638 571.723 107.494C571.723 104.115 572.636 101.419 574.462 99.4077C576.289 97.396 578.774 96.3901 581.918 96.3901C584.819 96.3901 587.153 97.3667 588.92 99.3198C590.698 101.273 591.586 103.827 591.586 106.981C591.586 110.409 590.678 113.119 588.862 115.111C587.045 117.103 584.614 118.099 581.567 118.099ZM581.743 98.6167C579.536 98.6167 577.744 99.4126 576.367 101.004C574.99 102.596 574.301 104.686 574.301 107.274C574.301 109.862 574.97 111.947 576.308 113.529C577.656 115.101 579.409 115.887 581.567 115.887C583.872 115.887 585.688 115.135 587.016 113.631C588.344 112.127 589.008 110.023 589.008 107.318C589.008 104.544 588.364 102.401 587.075 100.887C585.786 99.3735 584.008 98.6167 581.743 98.6167ZM605.883 124.808H603.715V94.8081H605.883V124.808ZM619.008 117.748V96.7417H626.45C633.911 96.7417 637.641 100.155 637.641 106.981C637.641 110.252 636.621 112.865 634.58 114.818C632.548 116.771 629.838 117.748 626.45 117.748H619.008ZM623.74 100.594V113.91H626.083C628.134 113.91 629.741 113.294 630.903 112.064C632.075 110.833 632.661 109.159 632.661 107.04C632.661 105.038 632.08 103.465 630.917 102.323C629.765 101.17 628.144 100.594 626.054 100.594H623.74ZM658.75 117.748H653.315L650.048 112.342C649.804 111.932 649.57 111.566 649.345 111.244C649.121 110.921 648.891 110.648 648.657 110.423C648.432 110.189 648.193 110.013 647.939 109.896C647.695 109.769 647.426 109.706 647.133 109.706H645.859V117.748H641.127V96.7417H648.627C653.725 96.7417 656.274 98.646 656.274 102.455C656.274 103.187 656.162 103.866 655.937 104.491C655.712 105.106 655.395 105.663 654.985 106.161C654.575 106.659 654.077 107.088 653.491 107.45C652.915 107.811 652.27 108.094 651.557 108.299V108.358C651.87 108.456 652.172 108.617 652.465 108.841C652.758 109.056 653.042 109.31 653.315 109.603C653.588 109.896 653.847 110.213 654.091 110.555C654.345 110.887 654.575 111.214 654.78 111.537L658.75 117.748ZM645.859 100.287V106.131H647.91C648.925 106.131 649.741 105.838 650.356 105.252C650.981 104.657 651.293 103.919 651.293 103.041C651.293 101.205 650.195 100.287 647.998 100.287H645.859ZM673.325 117.748H660.727V96.7417H672.841V100.594H665.458V105.267H672.329V109.105H665.458V113.91H673.325V117.748Z" fill="white"/>
<g filter="url(#filter0_f_7_296)">
<ellipse cx="985.66" cy="594.538" rx="675.165" ry="442.516" fill="#16F2CA" fill-opacity="0.2"/>
</g>
<path d="M77.1553 42.9457H209.703V1456.79H77.1553V42.9457Z" fill="black"/>
<g filter="url(#filter1_d_7_296)">
<path d="M109.996 404.258C109.996 394.879 117.599 387.276 126.978 387.276H156.572C165.951 387.276 173.554 394.879 173.554 404.258V433.846C173.554 443.225 165.951 450.828 156.572 450.828H126.978C117.599 450.828 109.996 443.225 109.996 433.846V404.258Z" fill="white" fill-opacity="0.1" shape-rendering="crispEdges"/>
</g>
<g clip-path="url(#clip1_7_296)">
<path d="M147.608 430.719V407.385H130.108V429.26C130.108 429.647 130.262 430.018 130.535 430.291C130.809 430.565 131.18 430.719 131.567 430.719H147.608ZM151.983 433.635H131.567C130.406 433.635 129.294 433.174 128.473 432.354C127.653 431.533 127.192 430.42 127.192 429.26V405.927C127.192 405.54 127.345 405.169 127.619 404.896C127.892 404.622 128.263 404.469 128.65 404.469H149.067C149.453 404.469 149.824 404.622 150.098 404.896C150.371 405.169 150.525 405.54 150.525 405.927V416.135H156.358V429.26C156.358 430.42 155.897 431.533 155.077 432.354C154.256 433.174 153.144 433.635 151.983 433.635ZM150.525 419.052V429.26C150.525 429.647 150.679 430.018 150.952 430.291C151.226 430.565 151.597 430.719 151.983 430.719C152.37 430.719 152.741 430.565 153.015 430.291C153.288 430.018 153.442 429.647 153.442 429.26V419.052H150.525ZM133.025 410.302H141.775V419.052H133.025V410.302ZM135.942 413.219V416.135H138.858V413.219H135.942ZM133.025 420.51H144.692V423.427H133.025V420.51ZM133.025 424.885H144.692V427.802H133.025V424.885Z" fill="#09E4A5"/>
</g>
<g clip-path="url(#clip2_7_296)">
<path d="M143.766 292.381V294.244L151.057 296.677L156.354 294.912L157.277 297.677L152.855 299.152L157.37 311.565C155.778 313.223 153.536 314.256 151.057 314.256C148.577 314.256 146.337 313.223 144.744 311.565L149.256 299.152L143.766 297.32V317.172H149.599V320.089H135.016V317.172H140.849V297.32L135.354 299.152L139.869 311.565C138.278 313.223 136.036 314.256 133.557 314.256C131.077 314.256 128.837 313.223 127.244 311.565L131.756 299.152L127.337 297.679L128.261 294.911L133.557 296.675L140.849 294.244V292.381H143.766ZM151.057 302.739L148.202 310.594C149.058 311.076 150.035 311.339 151.057 311.339C152.078 311.339 153.055 311.076 153.913 310.595L151.057 302.738V302.739ZM133.557 302.739L130.702 310.594C131.558 311.076 132.535 311.339 133.557 311.339C134.578 311.339 135.555 311.076 136.413 310.595L133.557 302.738V302.739Z" fill="#B0B0B0" fill-opacity="0.4"/>
</g>
<g filter="url(#filter2_d_7_296)">
<rect x="241.459" y="404.782" width="1566.82" height="596.271" rx="13.8071" fill="#17171C"/>
<rect x="242.959" y="406.282" width="1563.82" height="593.271" rx="12.3071" stroke="url(#paint1_linear_7_296)" stroke-width="3"/>
</g>
<g filter="url(#filter3_d_7_296)">
<rect x="241.459" y="157.078" width="363.446" height="217.704" rx="12.5244" fill="#17171C"/>
</g>
<rect x="268.675" y="184.291" width="54.426" height="54.426" rx="8" fill="#0FFFB7" fill-opacity="0.18"/>
<path d="M281.197 267.974H278.488L276.256 264.232C276.055 263.888 275.857 263.595 275.662 263.355C275.474 263.108 275.279 262.907 275.077 262.751C274.882 262.595 274.668 262.481 274.434 262.41C274.2 262.338 273.937 262.303 273.645 262.303H272.709V267.974H270.4V254.001H274.999C275.655 254.001 276.26 254.079 276.812 254.235C277.364 254.39 277.845 254.628 278.254 254.946C278.663 255.258 278.981 255.651 279.209 256.125C279.443 256.593 279.56 257.142 279.56 257.772C279.56 258.265 279.485 258.72 279.335 259.136C279.193 259.545 278.985 259.912 278.712 260.237C278.446 260.555 278.121 260.828 277.737 261.055C277.361 261.283 276.935 261.458 276.461 261.582V261.621C276.714 261.764 276.935 261.923 277.124 262.098C277.312 262.267 277.491 262.442 277.659 262.624C277.828 262.806 277.994 263.014 278.156 263.248C278.325 263.475 278.51 263.742 278.712 264.047L281.197 267.974ZM272.709 255.881V260.422H274.639C274.996 260.422 275.324 260.367 275.623 260.256C275.928 260.146 276.191 259.987 276.412 259.779C276.633 259.571 276.805 259.318 276.929 259.019C277.052 258.72 277.114 258.386 277.114 258.015C277.114 257.346 276.903 256.823 276.48 256.446C276.058 256.07 275.451 255.881 274.658 255.881H272.709ZM293.496 263.599H286.694C286.72 264.521 287.003 265.232 287.542 265.733C288.088 266.233 288.835 266.483 289.783 266.483C290.849 266.483 291.826 266.165 292.716 265.528V267.35C291.807 267.922 290.605 268.208 289.111 268.208C287.643 268.208 286.49 267.756 285.652 266.853C284.82 265.944 284.404 264.667 284.404 263.024C284.404 261.471 284.862 260.208 285.778 259.233C286.701 258.252 287.844 257.762 289.208 257.762C290.573 257.762 291.628 258.2 292.375 259.077C293.122 259.954 293.496 261.172 293.496 262.731V263.599ZM291.313 262.001C291.307 261.189 291.115 260.559 290.738 260.11C290.361 259.656 289.842 259.428 289.179 259.428C288.529 259.428 287.977 259.665 287.523 260.14C287.074 260.614 286.798 261.234 286.694 262.001H291.313ZM305.785 267.516C304.986 267.977 304.041 268.208 302.95 268.208C301.469 268.208 300.273 267.747 299.364 266.824C298.454 265.895 298 264.693 298 263.219C298 261.575 298.487 260.256 299.461 259.263C300.442 258.262 301.751 257.762 303.388 257.762C304.298 257.762 305.1 257.921 305.795 258.239V260.344C305.1 259.824 304.359 259.565 303.573 259.565C302.618 259.565 301.836 259.889 301.225 260.539C300.614 261.182 300.309 262.027 300.309 263.073C300.309 264.105 300.595 264.921 301.166 265.518C301.745 266.116 302.518 266.415 303.486 266.415C304.298 266.415 305.064 266.126 305.785 265.548V267.516ZM319.478 263.599H312.676C312.702 264.521 312.985 265.232 313.524 265.733C314.07 266.233 314.817 266.483 315.765 266.483C316.831 266.483 317.808 266.165 318.698 265.528V267.35C317.789 267.922 316.587 268.208 315.093 268.208C313.625 268.208 312.472 267.756 311.634 266.853C310.802 265.944 310.386 264.667 310.386 263.024C310.386 261.471 310.844 260.208 311.76 259.233C312.683 258.252 313.826 257.762 315.19 257.762C316.555 257.762 317.61 258.2 318.357 259.077C319.104 259.954 319.478 261.172 319.478 262.731V263.599ZM317.295 262.001C317.289 261.189 317.097 260.559 316.72 260.11C316.343 259.656 315.824 259.428 315.161 259.428C314.512 259.428 313.959 259.665 313.505 260.14C313.056 260.614 312.78 261.234 312.676 262.001H317.295ZM325.765 255.901C325.395 255.901 325.076 255.781 324.81 255.54C324.55 255.3 324.42 254.995 324.42 254.624C324.42 254.254 324.55 253.945 324.81 253.699C325.076 253.452 325.395 253.328 325.765 253.328C326.148 253.328 326.473 253.452 326.739 253.699C327.006 253.945 327.139 254.254 327.139 254.624C327.139 254.975 327.006 255.277 326.739 255.53C326.473 255.777 326.148 255.901 325.765 255.901ZM326.885 267.974H324.625V257.996H326.885V267.974ZM338.103 267.867C337.661 268.088 337.08 268.198 336.359 268.198C334.423 268.198 333.455 267.269 333.455 265.411V259.769H331.789V257.996H333.455V255.686L335.716 255.043V257.996H338.103V259.769H335.716V264.758C335.716 265.349 335.823 265.772 336.037 266.025C336.252 266.278 336.609 266.405 337.109 266.405C337.492 266.405 337.824 266.295 338.103 266.074V267.867ZM350.704 267.974H348.512V266.415H348.473C347.784 267.61 346.774 268.208 345.442 268.208C344.461 268.208 343.692 267.941 343.133 267.409C342.581 266.876 342.305 266.171 342.305 265.294C342.305 263.41 343.39 262.312 345.559 262.001L348.521 261.582C348.521 260.159 347.846 259.448 346.495 259.448C345.306 259.448 344.234 259.857 343.279 260.675V258.697C344.331 258.074 345.546 257.762 346.923 257.762C349.444 257.762 350.704 259.003 350.704 261.484V267.974ZM348.521 263.073L346.426 263.365C345.777 263.449 345.286 263.608 344.955 263.842C344.63 264.07 344.468 264.472 344.468 265.051C344.468 265.473 344.617 265.82 344.916 266.093C345.221 266.36 345.627 266.493 346.134 266.493C346.823 266.493 347.391 266.252 347.839 265.772C348.294 265.284 348.521 264.674 348.521 263.94V263.073ZM367.225 267.974H364.954V253.202H367.225V267.974ZM375.441 267.974H373.17V257.996H375.441V267.974ZM377.068 252.909L374.281 256.105H372.605L374.963 252.909H377.068ZM390.459 272.563H388.198V266.259H388.159C387.477 267.558 386.363 268.208 384.817 268.208C383.589 268.208 382.602 267.763 381.855 266.873C381.114 265.976 380.744 264.758 380.744 263.219C380.744 261.562 381.15 260.24 381.962 259.253C382.78 258.259 383.878 257.762 385.255 257.762C386.593 257.762 387.561 258.301 388.159 259.379H388.198V257.996H390.459V272.563ZM388.227 263.433V262.147C388.227 261.426 387.993 260.815 387.526 260.315C387.064 259.815 386.477 259.565 385.762 259.565C384.924 259.565 384.261 259.88 383.774 260.51C383.293 261.133 383.053 262.017 383.053 263.16C383.053 264.174 383.287 264.969 383.755 265.548C384.222 266.126 384.827 266.415 385.567 266.415C386.379 266.415 387.025 266.132 387.506 265.567C387.987 265.002 388.227 264.291 388.227 263.433ZM405.106 267.974H402.846V266.395H402.807C402.15 267.604 401.131 268.208 399.747 268.208C397.389 268.208 396.21 266.792 396.21 263.959V257.996H398.47V263.725C398.47 265.518 399.162 266.415 400.546 266.415C401.215 266.415 401.764 266.168 402.193 265.674C402.628 265.181 402.846 264.534 402.846 263.735V257.996H405.106V267.974ZM412.192 255.901C411.822 255.901 411.504 255.781 411.237 255.54C410.977 255.3 410.848 254.995 410.848 254.624C410.848 254.254 410.977 253.945 411.237 253.699C411.504 253.452 411.822 253.328 412.192 253.328C412.576 253.328 412.9 253.452 413.167 253.699C413.433 253.945 413.566 254.254 413.566 254.624C413.566 254.975 413.433 255.277 413.167 255.53C412.9 255.777 412.576 255.901 412.192 255.901ZM413.313 267.974H411.052V257.996H413.313V267.974ZM428.34 267.974H426.08V266.278H426.041C425.313 267.565 424.193 268.208 422.679 268.208C421.451 268.208 420.467 267.763 419.726 266.873C418.992 265.976 418.625 264.758 418.625 263.219C418.625 261.569 419.031 260.247 419.843 259.253C420.662 258.259 421.75 257.762 423.108 257.762C424.452 257.762 425.43 258.301 426.041 259.379H426.08V253.202H428.34V267.974ZM426.109 263.414V262.108C426.109 261.4 425.878 260.799 425.417 260.305C424.956 259.811 424.368 259.565 423.653 259.565C422.809 259.565 422.143 259.88 421.656 260.51C421.175 261.14 420.935 262.014 420.935 263.131C420.935 264.144 421.165 264.947 421.627 265.538C422.094 266.122 422.721 266.415 423.507 266.415C424.28 266.415 424.907 266.132 425.388 265.567C425.869 264.995 426.109 264.278 426.109 263.414ZM441.945 267.974H439.753V266.415H439.714C439.025 267.61 438.015 268.208 436.683 268.208C435.702 268.208 434.933 267.941 434.374 267.409C433.822 266.876 433.546 266.171 433.546 265.294C433.546 263.41 434.631 262.312 436.8 262.001L439.763 261.582C439.763 260.159 439.087 259.448 437.736 259.448C436.547 259.448 435.475 259.857 434.52 260.675V258.697C435.573 258.074 436.787 257.762 438.165 257.762C440.685 257.762 441.945 259.003 441.945 261.484V267.974ZM439.763 263.073L437.668 263.365C437.018 263.449 436.527 263.608 436.196 263.842C435.871 264.07 435.709 264.472 435.709 265.051C435.709 265.473 435.858 265.82 436.157 266.093C436.463 266.36 436.869 266.493 437.375 266.493C438.064 266.493 438.632 266.252 439.08 265.772C439.535 265.284 439.763 264.674 439.763 263.94V263.073Z" fill="#989797"/>
<path d="M298.311 208.75C298.311 210.176 297.745 211.543 296.737 212.551C295.729 213.559 294.362 214.125 292.936 214.125C291.51 214.125 290.143 213.559 289.135 212.551C288.127 211.543 287.561 210.176 287.561 208.75C287.561 207.324 288.127 205.957 289.135 204.949C290.143 203.941 291.51 203.375 292.936 203.375C294.362 203.375 295.729 203.941 296.737 204.949C297.745 205.957 298.311 207.324 298.311 208.75ZM295.623 208.75C295.623 208.037 295.34 207.354 294.836 206.85C294.332 206.346 293.649 206.062 292.936 206.062C292.223 206.062 291.54 206.346 291.036 206.85C290.532 207.354 290.249 208.037 290.249 208.75C290.249 209.463 290.532 210.146 291.036 210.65C291.54 211.154 292.223 211.438 292.936 211.438C293.649 211.438 294.332 211.154 294.836 210.65C295.34 210.146 295.623 209.463 295.623 208.75Z" fill="#00A861"/>
<path d="M276.811 201.359C276.811 199.505 278.316 198 280.17 198H305.702C307.556 198 309.061 199.505 309.061 201.359V216.141C309.061 217.995 307.556 219.5 305.702 219.5H280.17C278.316 219.5 276.811 217.995 276.811 216.141V201.359ZM280.17 200.688C279.992 200.688 279.821 200.758 279.695 200.884C279.569 201.01 279.499 201.181 279.499 201.359V203.375H280.842C281.199 203.375 281.54 203.233 281.792 202.981C282.044 202.729 282.186 202.388 282.186 202.031V200.688H280.17ZM279.499 216.141C279.499 216.511 279.8 216.812 280.17 216.812H282.186V215.469C282.186 215.112 282.044 214.771 281.792 214.519C281.54 214.267 281.199 214.125 280.842 214.125H279.499V216.141ZM284.873 215.469V216.812H300.999V215.469C300.999 214.4 301.423 213.374 302.179 212.618C302.935 211.862 303.961 211.438 305.03 211.438H306.373V206.062H305.03C303.961 206.062 302.935 205.638 302.179 204.882C301.423 204.126 300.999 203.1 300.999 202.031V200.688H284.873V202.031C284.873 203.1 284.449 204.126 283.693 204.882C282.937 205.638 281.911 206.062 280.842 206.062H279.499V211.438H280.842C281.911 211.438 282.937 211.862 283.693 212.618C284.449 213.374 284.873 214.4 284.873 215.469ZM303.686 216.812H305.702C305.88 216.812 306.051 216.742 306.177 216.616C306.303 216.49 306.373 216.319 306.373 216.141V214.125H305.03C304.673 214.125 304.332 214.267 304.08 214.519C303.828 214.771 303.686 215.112 303.686 215.469V216.812ZM306.373 203.375V201.359C306.373 201.181 306.303 201.01 306.177 200.884C306.051 200.758 305.88 200.688 305.702 200.688H303.686V202.031C303.686 202.388 303.828 202.729 304.08 202.981C304.332 203.233 304.673 203.375 305.03 203.375H306.373Z" fill="#00A861"/>
<path d="M286.217 224.875C285.366 224.875 284.536 224.606 283.847 224.106C283.158 223.606 282.646 222.9 282.382 222.091C282.756 222.155 283.137 222.187 283.53 222.187H305.702C307.305 222.187 308.843 221.55 309.977 220.416C311.111 219.282 311.748 217.744 311.748 216.141V203.603C312.535 203.881 313.216 204.396 313.697 205.078C314.178 205.759 314.436 206.572 314.436 207.406V216.141C314.436 217.288 314.21 218.423 313.771 219.483C313.332 220.543 312.689 221.506 311.878 222.317C311.067 223.128 310.104 223.771 309.044 224.21C307.984 224.649 306.849 224.875 305.702 224.875H286.217Z" fill="#00A861"/>
<g filter="url(#filter4_d_7_296)">
<rect x="642.586" y="157.078" width="363.446" height="217.704" rx="12.5244" fill="#17171C"/>
</g>
<rect x="669.802" y="184.291" width="54.426" height="54.426" rx="8" fill="#0FFFB7" fill-opacity="0.18"/>
<path d="M686.532 267.974H684.233V258.931C684.233 258.191 684.278 257.284 684.369 256.213H684.33C684.187 256.823 684.061 257.262 683.95 257.528L679.78 267.974H678.182L674.001 257.606C673.884 257.301 673.761 256.836 673.631 256.213H673.592C673.644 256.771 673.67 257.684 673.67 258.951V267.974H671.526V254.001H674.791L678.464 263.306C678.743 264.021 678.925 264.554 679.01 264.904H679.059C679.299 264.17 679.494 263.625 679.643 263.267L683.385 254.001H686.532V267.974ZM700.381 267.974H698.188V266.415H698.149C697.461 267.61 696.451 268.208 695.119 268.208C694.138 268.208 693.368 267.941 692.81 267.409C692.257 266.876 691.981 266.171 691.981 265.294C691.981 263.41 693.066 262.312 695.236 262.001L698.198 261.582C698.198 260.159 697.523 259.448 696.171 259.448C694.983 259.448 693.911 259.857 692.956 260.675V258.697C694.008 258.074 695.223 257.762 696.6 257.762C699.121 257.762 700.381 259.003 700.381 261.484V267.974ZM698.198 263.073L696.103 263.365C695.454 263.449 694.963 263.608 694.632 263.842C694.307 264.07 694.145 264.472 694.145 265.051C694.145 265.473 694.294 265.82 694.593 266.093C694.898 266.36 695.304 266.493 695.811 266.493C696.499 266.493 697.068 266.252 697.516 265.772C697.971 265.284 698.198 264.674 698.198 263.94V263.073ZM711.93 260.149C711.657 259.935 711.264 259.828 710.751 259.828C710.082 259.828 709.523 260.13 709.075 260.734C708.626 261.338 708.402 262.16 708.402 263.199V267.974H706.142V257.996H708.402V260.052H708.441C708.662 259.35 709 258.805 709.455 258.415C709.916 258.019 710.429 257.82 710.994 257.82C711.404 257.82 711.715 257.882 711.93 258.006V260.149ZM725.427 267.175C725.427 270.839 723.586 272.671 719.902 272.671C718.603 272.671 717.47 272.453 716.502 272.018V269.952C717.593 270.576 718.629 270.887 719.61 270.887C721.981 270.887 723.167 269.721 723.167 267.389V266.298H723.128C722.381 267.571 721.257 268.208 719.756 268.208C718.542 268.208 717.561 267.766 716.814 266.883C716.073 265.993 715.703 264.801 715.703 263.306C715.703 261.611 716.102 260.263 716.901 259.263C717.7 258.262 718.798 257.762 720.195 257.762C721.514 257.762 722.491 258.301 723.128 259.379H723.167V257.996H725.427V267.175ZM723.186 263.404V262.108C723.186 261.406 722.952 260.809 722.485 260.315C722.023 259.815 721.445 259.565 720.75 259.565C719.893 259.565 719.22 259.883 718.733 260.52C718.252 261.15 718.012 262.033 718.012 263.17C718.012 264.151 718.243 264.937 718.704 265.528C719.172 266.113 719.789 266.405 720.555 266.405C721.335 266.405 721.968 266.126 722.455 265.567C722.943 265.002 723.186 264.281 723.186 263.404ZM739.812 263.599H733.01C733.036 264.521 733.319 265.232 733.858 265.733C734.404 266.233 735.151 266.483 736.099 266.483C737.165 266.483 738.142 266.165 739.032 265.528V267.35C738.123 267.922 736.921 268.208 735.427 268.208C733.959 268.208 732.806 267.756 731.968 266.853C731.136 265.944 730.721 264.667 730.721 263.024C730.721 261.471 731.178 260.208 732.094 259.233C733.017 258.252 734.16 257.762 735.524 257.762C736.889 257.762 737.944 258.2 738.691 259.077C739.438 259.954 739.812 261.172 739.812 262.731V263.599ZM737.629 262.001C737.623 261.189 737.431 260.559 737.054 260.11C736.677 259.656 736.158 259.428 735.495 259.428C734.846 259.428 734.293 259.665 733.839 260.14C733.39 260.614 733.114 261.234 733.01 262.001H737.629ZM759.877 267.974H757.617V262.537C757.617 261.491 757.467 260.734 757.168 260.266C756.876 259.798 756.379 259.565 755.677 259.565C755.086 259.565 754.583 259.86 754.167 260.451C753.758 261.042 753.553 261.751 753.553 262.576V267.974H751.283V262.351C751.283 260.494 750.627 259.565 749.314 259.565C748.704 259.565 748.2 259.844 747.804 260.403C747.414 260.961 747.219 261.686 747.219 262.576V267.974H744.959V257.996H747.219V259.574H747.258C747.979 258.366 749.029 257.762 750.406 257.762C751.094 257.762 751.695 257.954 752.208 258.337C752.728 258.714 753.082 259.211 753.271 259.828C754.011 258.451 755.116 257.762 756.584 257.762C758.779 257.762 759.877 259.116 759.877 261.825V267.974ZM783.189 267.974H780.929V266.278H780.89C780.162 267.565 779.042 268.208 777.528 268.208C776.3 268.208 775.316 267.763 774.575 266.873C773.841 265.976 773.474 264.758 773.474 263.219C773.474 261.569 773.88 260.247 774.692 259.253C775.511 258.259 776.599 257.762 777.957 257.762C779.301 257.762 780.279 258.301 780.89 259.379H780.929V253.202H783.189V267.974ZM780.958 263.414V262.108C780.958 261.4 780.727 260.799 780.266 260.305C779.805 259.811 779.217 259.565 778.502 259.565C777.658 259.565 776.992 259.88 776.505 260.51C776.024 261.14 775.784 262.014 775.784 263.131C775.784 264.144 776.014 264.947 776.476 265.538C776.943 266.122 777.57 266.415 778.356 266.415C779.129 266.415 779.756 266.132 780.237 265.567C780.718 264.995 780.958 264.278 780.958 263.414ZM797.583 263.599H790.782C790.808 264.521 791.091 265.232 791.63 265.733C792.175 266.233 792.922 266.483 793.871 266.483C794.936 266.483 795.914 266.165 796.804 265.528V267.35C795.894 267.922 794.693 268.208 793.199 268.208C791.73 268.208 790.577 267.756 789.739 266.853C788.908 265.944 788.492 264.667 788.492 263.024C788.492 261.471 788.95 260.208 789.866 259.233C790.788 258.252 791.932 257.762 793.296 257.762C794.66 257.762 795.716 258.2 796.463 259.077C797.21 259.954 797.583 261.172 797.583 262.731V263.599ZM795.401 262.001C795.394 261.189 795.203 260.559 794.826 260.11C794.449 259.656 793.929 259.428 793.267 259.428C792.617 259.428 792.065 259.665 791.61 260.14C791.162 260.614 790.886 261.234 790.782 262.001H795.401ZM821.217 267.389C820.165 267.935 818.856 268.208 817.29 268.208C815.263 268.208 813.639 267.568 812.418 266.288C811.197 265.008 810.586 263.329 810.586 261.25C810.586 259.016 811.272 257.21 812.642 255.833C814.019 254.455 815.757 253.767 817.855 253.767C819.207 253.767 820.327 253.958 821.217 254.342V256.641C820.275 256.083 819.236 255.803 818.099 255.803C816.585 255.803 815.358 256.287 814.416 257.255C813.48 258.223 813.013 259.516 813.013 261.133C813.013 262.673 813.451 263.901 814.328 264.817C815.205 265.726 816.358 266.181 817.787 266.181C819.106 266.181 820.249 265.869 821.217 265.245V267.389ZM831.032 268.208C829.492 268.208 828.261 267.743 827.338 266.814C826.423 265.879 825.965 264.641 825.965 263.102C825.965 261.426 826.442 260.117 827.397 259.175C828.358 258.233 829.651 257.762 831.275 257.762C832.834 257.762 834.049 258.22 834.919 259.136C835.79 260.052 836.225 261.322 836.225 262.946C836.225 264.537 835.754 265.814 834.812 266.775C833.877 267.73 832.617 268.208 831.032 268.208ZM831.139 259.565C830.255 259.565 829.557 259.873 829.044 260.49C828.531 261.107 828.274 261.958 828.274 263.043C828.274 264.089 828.534 264.914 829.053 265.518C829.573 266.116 830.268 266.415 831.139 266.415C832.029 266.415 832.711 266.119 833.185 265.528C833.666 264.937 833.906 264.096 833.906 263.004C833.906 261.906 833.666 261.059 833.185 260.461C832.711 259.863 832.029 259.565 831.139 259.565ZM850.415 267.974H848.154V262.351C848.154 260.487 847.495 259.555 846.176 259.555C845.487 259.555 844.919 259.815 844.471 260.334C844.023 260.848 843.798 261.497 843.798 262.283V267.974H841.528V257.996H843.798V259.652H843.837C844.584 258.392 845.663 257.762 847.072 257.762C848.157 257.762 848.986 258.116 849.557 258.824C850.129 259.526 850.415 260.542 850.415 261.874V267.974ZM861.437 267.867C860.996 268.088 860.414 268.198 859.693 268.198C857.757 268.198 856.789 267.269 856.789 265.411V259.769H855.123V257.996H856.789V255.686L859.05 255.043V257.996H861.437V259.769H859.05V264.758C859.05 265.349 859.157 265.772 859.372 266.025C859.586 266.278 859.943 266.405 860.444 266.405C860.827 266.405 861.158 266.295 861.437 266.074V267.867ZM872.168 260.149C871.895 259.935 871.502 259.828 870.989 259.828C870.32 259.828 869.761 260.13 869.313 260.734C868.864 261.338 868.64 262.16 868.64 263.199V267.974H866.38V257.996H868.64V260.052H868.679C868.9 259.35 869.238 258.805 869.693 258.415C870.154 258.019 870.667 257.82 871.232 257.82C871.642 257.82 871.953 257.882 872.168 258.006V260.149ZM877.899 255.901C877.529 255.901 877.211 255.781 876.944 255.54C876.685 255.3 876.555 254.995 876.555 254.624C876.555 254.254 876.685 253.945 876.944 253.699C877.211 253.452 877.529 253.328 877.899 253.328C878.283 253.328 878.607 253.452 878.874 253.699C879.14 253.945 879.273 254.254 879.273 254.624C879.273 254.975 879.14 255.277 878.874 255.53C878.607 255.777 878.283 255.901 877.899 255.901ZM879.02 267.974H876.759V257.996H879.02V267.974ZM887.275 266.532H887.236V267.974H884.976V253.202H887.236V259.75H887.275C888.048 258.425 889.179 257.762 890.666 257.762C891.926 257.762 892.911 258.21 893.619 259.107C894.333 259.997 894.691 261.192 894.691 262.693C894.691 264.362 894.291 265.7 893.492 266.707C892.693 267.708 891.602 268.208 890.218 268.208C888.919 268.208 887.938 267.649 887.275 266.532ZM887.217 262.566V263.803C887.217 264.531 887.447 265.148 887.909 265.655C888.376 266.161 888.967 266.415 889.682 266.415C890.52 266.415 891.176 266.09 891.65 265.44C892.131 264.784 892.371 263.872 892.371 262.702C892.371 261.721 892.147 260.955 891.699 260.403C891.257 259.844 890.656 259.565 889.896 259.565C889.091 259.565 888.441 259.85 887.948 260.422C887.46 260.994 887.217 261.708 887.217 262.566ZM908.695 267.974H906.434V266.395H906.395C905.739 267.604 904.719 268.208 903.336 268.208C900.978 268.208 899.799 266.792 899.799 263.959V257.996H902.059V263.725C902.059 265.518 902.751 266.415 904.135 266.415C904.804 266.415 905.353 266.168 905.781 265.674C906.217 265.181 906.434 264.534 906.434 263.735V257.996H908.695V267.974ZM915.781 255.901C915.411 255.901 915.092 255.781 914.826 255.54C914.566 255.3 914.436 254.995 914.436 254.624C914.436 254.254 914.566 253.945 914.826 253.699C915.092 253.452 915.411 253.328 915.781 253.328C916.164 253.328 916.489 253.452 916.755 253.699C917.022 253.945 917.155 254.254 917.155 254.624C917.155 254.975 917.022 255.277 916.755 255.53C916.489 255.777 916.164 255.901 915.781 255.901ZM916.902 267.974H914.641V257.996H916.902V267.974ZM930 267.516C929.201 267.977 928.256 268.208 927.164 268.208C925.683 268.208 924.488 267.747 923.578 266.824C922.669 265.895 922.214 264.693 922.214 263.219C922.214 261.575 922.701 260.256 923.676 259.263C924.657 258.262 925.966 257.762 927.603 257.762C928.512 257.762 929.314 257.921 930.01 258.239V260.344C929.314 259.824 928.574 259.565 927.788 259.565C926.833 259.565 926.05 259.889 925.44 260.539C924.829 261.182 924.524 262.027 924.524 263.073C924.524 264.105 924.809 264.921 925.381 265.518C925.959 266.116 926.732 266.415 927.7 266.415C928.512 266.415 929.279 266.126 930 265.548V267.516ZM929.191 270.39C929.191 271.651 928.256 272.281 926.385 272.281C926.079 272.281 925.816 272.271 925.595 272.252V271.17C925.881 271.209 926.112 271.228 926.287 271.228C927.151 271.228 927.583 270.962 927.583 270.429C927.583 269.949 927.19 269.708 926.404 269.708C926.339 269.708 926.213 269.721 926.024 269.747V267.974H927.349V268.89C927.915 268.89 928.363 269.02 928.694 269.28C929.025 269.546 929.191 269.916 929.191 270.39ZM942.903 267.974H940.711V266.415H940.672C939.983 267.61 938.973 268.208 937.641 268.208C936.66 268.208 935.891 267.941 935.332 267.409C934.78 266.876 934.504 266.171 934.504 265.294C934.504 263.41 935.588 262.312 937.758 262.001L940.72 261.582C940.72 260.159 940.045 259.448 938.694 259.448C937.505 259.448 936.433 259.857 935.478 260.675V258.697C936.53 258.074 937.745 257.762 939.122 257.762C941.643 257.762 942.903 259.003 942.903 261.484V267.974ZM940.72 263.073L938.625 263.365C937.976 263.449 937.485 263.608 937.154 263.842C936.829 264.07 936.667 264.472 936.667 265.051C936.667 265.473 936.816 265.82 937.115 266.093C937.42 266.36 937.826 266.493 938.333 266.493C939.022 266.493 939.59 266.252 940.038 265.772C940.493 265.284 940.72 264.674 940.72 263.94V263.073ZM942.27 253.601C942.27 254.355 942.101 254.972 941.763 255.453C941.432 255.927 940.98 256.164 940.409 256.164C939.941 256.164 939.405 256.008 938.801 255.696C938.294 255.404 937.901 255.258 937.622 255.258C937.076 255.258 936.803 255.618 936.803 256.339H935.683C935.683 255.566 935.848 254.949 936.18 254.488C936.511 254.02 936.975 253.786 937.573 253.786C938.015 253.786 938.525 253.952 939.103 254.283C939.571 254.569 939.977 254.712 940.321 254.712C940.847 254.712 941.11 254.342 941.11 253.601H942.27ZM953.088 268.208C951.548 268.208 950.317 267.743 949.395 266.814C948.479 265.879 948.021 264.641 948.021 263.102C948.021 261.426 948.498 260.117 949.453 259.175C950.415 258.233 951.707 257.762 953.331 257.762C954.89 257.762 956.105 258.22 956.976 259.136C957.846 260.052 958.281 261.322 958.281 262.946C958.281 264.537 957.811 265.814 956.869 266.775C955.933 267.73 954.673 268.208 953.088 268.208ZM953.195 259.565C952.312 259.565 951.613 259.873 951.1 260.49C950.587 261.107 950.33 261.958 950.33 263.043C950.33 264.089 950.59 264.914 951.11 265.518C951.629 266.116 952.324 266.415 953.195 266.415C954.085 266.415 954.767 266.119 955.241 265.528C955.722 264.937 955.962 264.096 955.962 263.004C955.962 261.906 955.722 261.059 955.241 260.461C954.767 259.863 954.085 259.565 953.195 259.565Z" fill="#989797"/>
<g clip-path="url(#clip3_7_296)">
<path d="M689.025 213.514L696.733 221.222L704.442 213.514" stroke="#00A861" stroke-width="3" stroke-linecap="round" stroke-linejoin="round"/>
<path d="M689.025 202.722L696.733 210.431L704.442 202.722" stroke="#00A861" stroke-width="3" stroke-linecap="round" stroke-linejoin="round"/>
</g>
<path d="M673.458 337.189C672.567 337.189 671.858 336.904 671.331 336.336C670.803 335.762 670.54 334.997 670.54 334.042C670.54 332.999 670.818 332.179 671.375 331.581C671.937 330.978 672.693 330.676 673.642 330.676C674.562 330.676 675.274 330.954 675.778 331.511C676.288 332.068 676.543 332.85 676.543 333.858C676.543 334.865 676.259 335.674 675.69 336.283C675.122 336.887 674.378 337.189 673.458 337.189ZM673.581 331.906C673.1 331.906 672.719 332.091 672.438 332.46C672.163 332.829 672.025 333.336 672.025 333.981C672.025 334.613 672.16 335.106 672.429 335.457C672.705 335.809 673.08 335.984 673.554 335.984C674.029 335.984 674.401 335.803 674.671 335.44C674.94 335.07 675.075 334.561 675.075 333.91C675.075 333.277 674.94 332.785 674.671 332.434C674.407 332.082 674.044 331.906 673.581 331.906ZM681.992 330.86L673.906 343.552H672.649L680.726 330.86H681.992ZM680.858 343.657C679.968 343.657 679.259 343.373 678.731 342.805C678.204 342.231 677.94 341.466 677.94 340.511C677.94 339.468 678.219 338.648 678.775 338.05C679.338 337.446 680.094 337.145 681.043 337.145C681.963 337.145 682.675 337.423 683.178 337.98C683.688 338.536 683.943 339.318 683.943 340.326C683.943 341.334 683.659 342.143 683.091 342.752C682.522 343.356 681.778 343.657 680.858 343.657ZM680.981 338.375C680.501 338.375 680.12 338.56 679.839 338.929C679.563 339.298 679.426 339.805 679.426 340.449C679.426 341.082 679.56 341.574 679.83 341.926C680.105 342.277 680.48 342.453 680.955 342.453C681.429 342.453 681.802 342.272 682.071 341.908C682.341 341.539 682.475 341.029 682.475 340.379C682.475 339.746 682.341 339.254 682.071 338.902C681.807 338.551 681.444 338.375 680.981 338.375ZM704.803 343.464H702.764V341.935H702.729C702.073 343.095 701.062 343.675 699.697 343.675C698.589 343.675 697.702 343.274 697.034 342.471C696.371 341.662 696.04 340.564 696.04 339.175C696.04 337.687 696.407 336.494 697.139 335.598C697.877 334.701 698.859 334.253 700.083 334.253C701.296 334.253 702.178 334.739 702.729 335.712H702.764V330.14H704.803V343.464ZM702.79 339.351V338.173C702.79 337.534 702.582 336.992 702.166 336.547C701.75 336.102 701.22 335.879 700.576 335.879C699.814 335.879 699.213 336.163 698.774 336.732C698.34 337.3 698.123 338.088 698.123 339.096C698.123 340.01 698.331 340.734 698.747 341.267C699.169 341.794 699.735 342.058 700.444 342.058C701.141 342.058 701.706 341.803 702.14 341.293C702.574 340.777 702.79 340.13 702.79 339.351ZM717.074 343.464H715.097V342.058H715.062C714.441 343.136 713.529 343.675 712.328 343.675C711.444 343.675 710.749 343.435 710.245 342.954C709.747 342.474 709.498 341.838 709.498 341.047C709.498 339.348 710.477 338.358 712.434 338.076L715.106 337.698C715.106 336.415 714.496 335.774 713.277 335.774C712.205 335.774 711.238 336.143 710.377 336.881V335.097C711.326 334.534 712.422 334.253 713.664 334.253C715.938 334.253 717.074 335.372 717.074 337.61V343.464ZM715.106 339.043L713.216 339.307C712.63 339.383 712.188 339.526 711.889 339.737C711.596 339.943 711.449 340.306 711.449 340.827C711.449 341.208 711.584 341.522 711.854 341.768C712.129 342.008 712.495 342.128 712.952 342.128C713.573 342.128 714.086 341.911 714.49 341.478C714.901 341.038 715.106 340.487 715.106 339.825V339.043ZM735.148 336.406C734.902 336.213 734.548 336.116 734.085 336.116C733.481 336.116 732.977 336.389 732.573 336.934C732.169 337.479 731.967 338.22 731.967 339.157V343.464H729.927V334.464H731.967V336.318H732.002C732.201 335.686 732.506 335.193 732.916 334.842C733.332 334.484 733.795 334.306 734.304 334.306C734.674 334.306 734.955 334.361 735.148 334.473V336.406ZM746.752 339.518H740.617C740.64 340.35 740.895 340.991 741.381 341.443C741.874 341.894 742.547 342.119 743.403 342.119C744.364 342.119 745.246 341.832 746.048 341.258V342.901C745.228 343.417 744.144 343.675 742.796 343.675C741.472 343.675 740.432 343.268 739.676 342.453C738.926 341.633 738.551 340.482 738.551 338.999C738.551 337.599 738.964 336.459 739.791 335.58C740.623 334.695 741.654 334.253 742.884 334.253C744.115 334.253 745.067 334.649 745.741 335.44C746.415 336.231 746.752 337.329 746.752 338.735V339.518ZM744.783 338.076C744.777 337.344 744.604 336.776 744.264 336.371C743.924 335.961 743.456 335.756 742.858 335.756C742.272 335.756 741.774 335.97 741.364 336.398C740.96 336.825 740.71 337.385 740.617 338.076H744.783ZM757.836 343.051C757.116 343.467 756.263 343.675 755.279 343.675C753.943 343.675 752.865 343.259 752.044 342.427C751.224 341.589 750.814 340.505 750.814 339.175C750.814 337.693 751.253 336.503 752.132 335.607C753.017 334.704 754.198 334.253 755.674 334.253C756.494 334.253 757.218 334.397 757.845 334.684V336.582C757.218 336.113 756.55 335.879 755.841 335.879C754.98 335.879 754.274 336.172 753.723 336.758C753.172 337.338 752.897 338.1 752.897 339.043C752.897 339.975 753.155 340.71 753.67 341.249C754.192 341.788 754.889 342.058 755.762 342.058C756.494 342.058 757.186 341.797 757.836 341.276V343.051ZM770.187 339.518H764.052C764.075 340.35 764.33 340.991 764.817 341.443C765.309 341.894 765.983 342.119 766.838 342.119C767.799 342.119 768.681 341.832 769.484 341.258V342.901C768.663 343.417 767.579 343.675 766.232 343.675C764.907 343.675 763.867 343.268 763.111 342.453C762.361 341.633 761.986 340.482 761.986 338.999C761.986 337.599 762.4 336.459 763.226 335.58C764.058 334.695 765.089 334.253 766.319 334.253C767.55 334.253 768.502 334.649 769.176 335.44C769.85 336.231 770.187 337.329 770.187 338.735V339.518ZM768.218 338.076C768.212 337.344 768.039 336.776 767.699 336.371C767.36 335.961 766.891 335.756 766.293 335.756C765.707 335.756 765.209 335.97 764.799 336.398C764.395 336.825 764.146 337.385 764.052 338.076H768.218ZM775.857 332.574C775.523 332.574 775.236 332.466 774.996 332.249C774.762 332.032 774.644 331.757 774.644 331.423C774.644 331.089 774.762 330.811 774.996 330.588C775.236 330.365 775.523 330.254 775.857 330.254C776.203 330.254 776.496 330.365 776.736 330.588C776.977 330.811 777.097 331.089 777.097 331.423C777.097 331.739 776.977 332.012 776.736 332.24C776.496 332.463 776.203 332.574 775.857 332.574ZM776.868 343.464H774.829V334.464H776.868V343.464ZM786.986 343.367C786.588 343.567 786.063 343.666 785.413 343.666C783.667 343.666 782.794 342.828 782.794 341.152V336.064H781.291V334.464H782.794V332.381L784.833 331.801V334.464H786.986V336.064H784.833V340.564C784.833 341.097 784.929 341.478 785.123 341.706C785.316 341.935 785.638 342.049 786.09 342.049C786.435 342.049 786.734 341.949 786.986 341.75V343.367ZM798.352 343.464H796.375V342.058H796.339C795.718 343.136 794.807 343.675 793.606 343.675C792.721 343.675 792.027 343.435 791.523 342.954C791.025 342.474 790.776 341.838 790.776 341.047C790.776 339.348 791.754 338.358 793.711 338.076L796.383 337.698C796.383 336.415 795.774 335.774 794.555 335.774C793.483 335.774 792.516 336.143 791.655 336.881V335.097C792.604 334.534 793.7 334.253 794.942 334.253C797.215 334.253 798.352 335.372 798.352 337.61V343.464ZM796.383 339.043L794.494 339.307C793.908 339.383 793.465 339.526 793.167 339.737C792.874 339.943 792.727 340.306 792.727 340.827C792.727 341.208 792.862 341.522 793.131 341.768C793.407 342.008 793.773 342.128 794.23 342.128C794.851 342.128 795.364 341.911 795.768 341.478C796.178 341.038 796.383 340.487 796.383 339.825V339.043ZM813.279 342.163H813.244V343.464H811.205V330.14H813.244V336.046H813.279C813.977 334.851 814.996 334.253 816.338 334.253C817.475 334.253 818.362 334.657 819.001 335.466C819.646 336.269 819.968 337.347 819.968 338.7C819.968 340.206 819.608 341.413 818.887 342.321C818.166 343.224 817.182 343.675 815.934 343.675C814.762 343.675 813.877 343.171 813.279 342.163ZM813.227 338.586V339.702C813.227 340.359 813.435 340.915 813.851 341.372C814.273 341.829 814.806 342.058 815.45 342.058C816.206 342.058 816.798 341.765 817.226 341.179C817.659 340.587 817.876 339.764 817.876 338.709C817.876 337.824 817.674 337.133 817.27 336.635C816.871 336.131 816.329 335.879 815.644 335.879C814.917 335.879 814.331 336.137 813.886 336.652C813.446 337.168 813.227 337.813 813.227 338.586ZM829.972 336.406C829.726 336.213 829.371 336.116 828.908 336.116C828.305 336.116 827.801 336.389 827.396 336.934C826.992 337.479 826.79 338.22 826.79 339.157V343.464H824.751V334.464H826.79V336.318H826.825C827.024 335.686 827.329 335.193 827.739 334.842C828.155 334.484 828.618 334.306 829.128 334.306C829.497 334.306 829.778 334.361 829.972 334.473V336.406ZM841.962 343.464H839.923V342.04H839.887C839.296 343.13 838.376 343.675 837.128 343.675C835.001 343.675 833.937 342.398 833.937 339.843V334.464H835.976V339.632C835.976 341.249 836.6 342.058 837.848 342.058C838.452 342.058 838.947 341.835 839.334 341.39C839.726 340.944 839.923 340.361 839.923 339.641V334.464H841.962V343.464ZM852.071 343.367C851.672 343.567 851.148 343.666 850.498 343.666C848.752 343.666 847.878 342.828 847.878 341.152V336.064H846.376V334.464H847.878V332.381L849.918 331.801V334.464H852.071V336.064H849.918V340.564C849.918 341.097 850.014 341.478 850.208 341.706C850.401 341.935 850.723 342.049 851.174 342.049C851.52 342.049 851.819 341.949 852.071 341.75V343.367ZM863.437 343.464H861.459V342.058H861.424C860.803 343.136 859.892 343.675 858.691 343.675C857.806 343.675 857.112 343.435 856.608 342.954C856.11 342.474 855.861 341.838 855.861 341.047C855.861 339.348 856.839 338.358 858.796 338.076L861.468 337.698C861.468 336.415 860.859 335.774 859.64 335.774C858.568 335.774 857.601 336.143 856.74 336.881V335.097C857.689 334.534 858.785 334.253 860.027 334.253C862.3 334.253 863.437 335.372 863.437 337.61V343.464ZM861.468 339.043L859.578 339.307C858.993 339.383 858.55 339.526 858.251 339.737C857.958 339.943 857.812 340.306 857.812 340.827C857.812 341.208 857.947 341.522 858.216 341.768C858.492 342.008 858.858 342.128 859.315 342.128C859.936 342.128 860.449 341.911 860.853 341.478C861.263 341.038 861.468 340.487 861.468 339.825V339.043Z" fill="#787878"/>
<g filter="url(#filter5_d_7_296)">
<rect x="1043.71" y="157.078" width="363.446" height="217.704" rx="12.5244" fill="#17171C"/>
</g>
<rect x="1071.73" y="184.291" width="54.426" height="54.426" rx="8" fill="#0FFFB7" fill-opacity="0.18"/>
<path d="M1081.3 267.974H1073.45V254.001H1080.99V255.969H1075.77V259.925H1080.58V261.884H1075.77V266.015H1081.3V267.974ZM1086.78 267.974V254.001H1091.21C1092.56 254.001 1093.63 254.296 1094.41 254.887C1095.21 255.479 1095.6 256.248 1095.6 257.197C1095.6 257.989 1095.38 258.678 1094.93 259.263C1094.48 259.847 1093.86 260.263 1093.07 260.51V260.549C1094.03 260.659 1094.8 261.016 1095.37 261.621C1095.95 262.218 1096.24 262.998 1096.24 263.959C1096.24 265.155 1095.77 266.122 1094.82 266.863C1093.88 267.604 1092.69 267.974 1091.26 267.974H1086.78ZM1089.08 255.862V259.837H1090.59C1091.39 259.837 1092.02 259.649 1092.48 259.272C1092.94 258.889 1093.17 258.35 1093.17 257.655C1093.17 256.459 1092.37 255.862 1090.77 255.862H1089.08ZM1089.08 261.699V266.122H1091.06C1091.93 266.122 1092.59 265.924 1093.06 265.528C1093.53 265.125 1093.77 264.573 1093.77 263.872C1093.77 262.423 1092.77 261.699 1090.76 261.699H1089.08ZM1104.21 267.974H1101.82V254.001H1104.21V267.974ZM1119.62 255.969H1115.6V267.974H1113.28V255.969H1109.28V254.001H1119.62V255.969ZM1124.66 267.974V254.001H1128.69C1133.84 254.001 1136.42 256.271 1136.42 260.812C1136.42 262.969 1135.7 264.703 1134.27 266.015C1132.85 267.321 1130.93 267.974 1128.53 267.974H1124.66ZM1126.97 255.969V266.015H1128.82C1130.45 266.015 1131.71 265.567 1132.62 264.671C1133.53 263.774 1133.98 262.507 1133.98 260.87C1133.98 257.603 1132.29 255.969 1128.91 255.969H1126.97ZM1153.14 267.974H1150.6L1149.34 264.417H1143.85L1142.64 267.974H1140.1L1145.34 254.001H1147.95L1153.14 267.974ZM1148.73 262.527L1146.79 256.953C1146.73 256.771 1146.67 256.479 1146.6 256.076H1146.56C1146.51 256.446 1146.44 256.739 1146.37 256.953L1144.45 262.527H1148.73Z" fill="#787878"/>
<path d="M1088.73 207.358V213.961C1088.73 215.172 1089.75 216.163 1091 216.163H1102.35C1103.6 216.163 1104.62 215.172 1104.62 213.961V207.358C1104.62 206.147 1103.6 205.157 1102.35 205.157H1091C1089.75 205.157 1088.73 206.147 1088.73 207.358ZM1100.08 208.458H1093.27V207.358H1100.08V208.458Z" fill="#00A861"/>
<path d="M1107.8 218.473C1107.57 218.254 1107.23 218.033 1106.55 217.923C1105.87 217.813 1102.24 217.373 1101.78 217.263C1101.1 217.153 1100.31 217.483 1099.28 218.143C1098.6 218.583 1097.24 219.354 1097.13 219.354C1097.24 219.464 1097.81 219.464 1097.81 219.464H1097.92C1099.17 219.464 1100.08 220.454 1100.08 221.555V221.775C1100.08 222.986 1099.06 223.866 1097.92 223.866H1095.54C1093.5 223.866 1091.57 221.886 1091.57 221.886C1091.57 221.886 1093.95 222.766 1095.54 222.766H1097.81C1098.49 222.766 1098.94 222.215 1098.94 221.665C1098.94 221.115 1098.49 220.564 1097.92 220.564C1095.77 220.345 1094.86 219.464 1094.86 219.464C1094.86 219.464 1092.93 218.033 1092.25 217.703C1089.86 216.382 1085.44 219.134 1085.44 219.134L1088.39 225.407C1088.39 225.407 1089.86 224.526 1091.91 225.297C1093.27 225.847 1094.06 226.287 1095.43 226.727C1097.35 227.388 1098.04 227.278 1099.28 226.398C1100.42 225.627 1105.87 221.445 1106.66 220.895C1107.8 219.904 1108.36 219.134 1107.8 218.473Z" fill="#00A861"/>
<path d="M1105.85 199.222L1108.47 201.771L1112.83 196.674" stroke="#00A861" stroke-width="1.6611" stroke-linecap="round" stroke-linejoin="round"/>
<path d="M1075.38 337.189C1074.49 337.189 1073.78 336.904 1073.26 336.336C1072.73 335.762 1072.47 334.997 1072.47 334.042C1072.47 332.999 1072.74 332.179 1073.3 331.581C1073.86 330.978 1074.62 330.676 1075.57 330.676C1076.49 330.676 1077.2 330.954 1077.7 331.511C1078.21 332.068 1078.47 332.85 1078.47 333.858C1078.47 334.865 1078.19 335.674 1077.62 336.283C1077.05 336.887 1076.3 337.189 1075.38 337.189ZM1075.51 331.906C1075.03 331.906 1074.65 332.091 1074.36 332.46C1074.09 332.829 1073.95 333.336 1073.95 333.981C1073.95 334.613 1074.09 335.106 1074.36 335.457C1074.63 335.809 1075.01 335.984 1075.48 335.984C1075.96 335.984 1076.33 335.803 1076.6 335.44C1076.87 335.07 1077 334.561 1077 333.91C1077 333.277 1076.87 332.785 1076.6 332.434C1076.33 332.082 1075.97 331.906 1075.51 331.906ZM1083.92 330.86L1075.83 343.552H1074.58L1082.65 330.86H1083.92ZM1082.78 343.657C1081.89 343.657 1081.19 343.373 1080.66 342.805C1080.13 342.231 1079.87 341.466 1079.87 340.511C1079.87 339.468 1080.15 338.648 1080.7 338.05C1081.26 337.446 1082.02 337.145 1082.97 337.145C1083.89 337.145 1084.6 337.423 1085.1 337.98C1085.61 338.536 1085.87 339.318 1085.87 340.326C1085.87 341.334 1085.59 342.143 1085.02 342.752C1084.45 343.356 1083.7 343.657 1082.78 343.657ZM1082.91 338.375C1082.43 338.375 1082.05 338.56 1081.77 338.929C1081.49 339.298 1081.35 339.805 1081.35 340.449C1081.35 341.082 1081.49 341.574 1081.76 341.926C1082.03 342.277 1082.41 342.453 1082.88 342.453C1083.36 342.453 1083.73 342.272 1084 341.908C1084.27 341.539 1084.4 341.029 1084.4 340.379C1084.4 339.746 1084.27 339.254 1084 338.902C1083.73 338.551 1083.37 338.375 1082.91 338.375ZM1106.73 343.464H1104.69V341.935H1104.66C1104 343.095 1102.99 343.675 1101.62 343.675C1100.52 343.675 1099.63 343.274 1098.96 342.471C1098.3 341.662 1097.97 340.564 1097.97 339.175C1097.97 337.687 1098.33 336.494 1099.07 335.598C1099.8 334.701 1100.79 334.253 1102.01 334.253C1103.22 334.253 1104.1 334.739 1104.66 335.712H1104.69V330.14H1106.73V343.464ZM1104.72 339.351V338.173C1104.72 337.534 1104.51 336.992 1104.09 336.547C1103.68 336.102 1103.15 335.879 1102.5 335.879C1101.74 335.879 1101.14 336.163 1100.7 336.732C1100.27 337.3 1100.05 338.088 1100.05 339.096C1100.05 340.01 1100.26 340.734 1100.67 341.267C1101.1 341.794 1101.66 342.058 1102.37 342.058C1103.07 342.058 1103.63 341.803 1104.07 341.293C1104.5 340.777 1104.72 340.13 1104.72 339.351ZM1119 343.464H1117.02V342.058H1116.99C1116.37 343.136 1115.46 343.675 1114.25 343.675C1113.37 343.675 1112.68 343.435 1112.17 342.954C1111.67 342.474 1111.42 341.838 1111.42 341.047C1111.42 339.348 1112.4 338.358 1114.36 338.076L1117.03 337.698C1117.03 336.415 1116.42 335.774 1115.2 335.774C1114.13 335.774 1113.16 336.143 1112.3 336.881V335.097C1113.25 334.534 1114.35 334.253 1115.59 334.253C1117.86 334.253 1119 335.372 1119 337.61V343.464ZM1117.03 339.043L1115.14 339.307C1114.56 339.383 1114.11 339.526 1113.82 339.737C1113.52 339.943 1113.38 340.306 1113.38 340.827C1113.38 341.208 1113.51 341.522 1113.78 341.768C1114.06 342.008 1114.42 342.128 1114.88 342.128C1115.5 342.128 1116.01 341.911 1116.42 341.478C1116.83 341.038 1117.03 340.487 1117.03 339.825V339.043ZM1137.07 336.406C1136.83 336.213 1136.47 336.116 1136.01 336.116C1135.41 336.116 1134.9 336.389 1134.5 336.934C1134.1 337.479 1133.89 338.22 1133.89 339.157V343.464H1131.85V334.464H1133.89V336.318H1133.93C1134.13 335.686 1134.43 335.193 1134.84 334.842C1135.26 334.484 1135.72 334.306 1136.23 334.306C1136.6 334.306 1136.88 334.361 1137.07 334.473V336.406ZM1148.68 339.518H1142.54C1142.57 340.35 1142.82 340.991 1143.31 341.443C1143.8 341.894 1144.47 342.119 1145.33 342.119C1146.29 342.119 1147.17 341.832 1147.97 341.258V342.901C1147.15 343.417 1146.07 343.675 1144.72 343.675C1143.4 343.675 1142.36 343.268 1141.6 342.453C1140.85 341.633 1140.48 340.482 1140.48 338.999C1140.48 337.599 1140.89 336.459 1141.72 335.58C1142.55 334.695 1143.58 334.253 1144.81 334.253C1146.04 334.253 1146.99 334.649 1147.67 335.44C1148.34 336.231 1148.68 337.329 1148.68 338.735V339.518ZM1146.71 338.076C1146.7 337.344 1146.53 336.776 1146.19 336.371C1145.85 335.961 1145.38 335.756 1144.78 335.756C1144.2 335.756 1143.7 335.97 1143.29 336.398C1142.89 336.825 1142.64 337.385 1142.54 338.076H1146.71ZM1159.76 343.051C1159.04 343.467 1158.19 343.675 1157.21 343.675C1155.87 343.675 1154.79 343.259 1153.97 342.427C1153.15 341.589 1152.74 340.505 1152.74 339.175C1152.74 337.693 1153.18 336.503 1154.06 335.607C1154.94 334.704 1156.12 334.253 1157.6 334.253C1158.42 334.253 1159.14 334.397 1159.77 334.684V336.582C1159.14 336.113 1158.48 335.879 1157.77 335.879C1156.91 335.879 1156.2 336.172 1155.65 336.758C1155.1 337.338 1154.82 338.1 1154.82 339.043C1154.82 339.975 1155.08 340.71 1155.6 341.249C1156.12 341.788 1156.82 342.058 1157.69 342.058C1158.42 342.058 1159.11 341.797 1159.76 341.276V343.051ZM1172.11 339.518H1165.98C1166 340.35 1166.26 340.991 1166.74 341.443C1167.24 341.894 1167.91 342.119 1168.76 342.119C1169.73 342.119 1170.61 341.832 1171.41 341.258V342.901C1170.59 343.417 1169.51 343.675 1168.16 343.675C1166.83 343.675 1165.79 343.268 1165.04 342.453C1164.29 341.633 1163.91 340.482 1163.91 338.999C1163.91 337.599 1164.33 336.459 1165.15 335.58C1165.98 334.695 1167.02 334.253 1168.25 334.253C1169.48 334.253 1170.43 334.649 1171.1 335.44C1171.78 336.231 1172.11 337.329 1172.11 338.735V339.518ZM1170.14 338.076C1170.14 337.344 1169.97 336.776 1169.63 336.371C1169.29 335.961 1168.82 335.756 1168.22 335.756C1167.63 335.756 1167.14 335.97 1166.73 336.398C1166.32 336.825 1166.07 337.385 1165.98 338.076H1170.14ZM1177.78 332.574C1177.45 332.574 1177.16 332.466 1176.92 332.249C1176.69 332.032 1176.57 331.757 1176.57 331.423C1176.57 331.089 1176.69 330.811 1176.92 330.588C1177.16 330.365 1177.45 330.254 1177.78 330.254C1178.13 330.254 1178.42 330.365 1178.66 330.588C1178.9 330.811 1179.02 331.089 1179.02 331.423C1179.02 331.739 1178.9 332.012 1178.66 332.24C1178.42 332.463 1178.13 332.574 1177.78 332.574ZM1178.79 343.464H1176.76V334.464H1178.79V343.464ZM1188.91 343.367C1188.51 343.567 1187.99 343.666 1187.34 343.666C1185.59 343.666 1184.72 342.828 1184.72 341.152V336.064H1183.22V334.464H1184.72V332.381L1186.76 331.801V334.464H1188.91V336.064H1186.76V340.564C1186.76 341.097 1186.86 341.478 1187.05 341.706C1187.24 341.935 1187.56 342.049 1188.02 342.049C1188.36 342.049 1188.66 341.949 1188.91 341.75V343.367ZM1200.28 343.464H1198.3V342.058H1198.27C1197.64 343.136 1196.73 343.675 1195.53 343.675C1194.65 343.675 1193.95 343.435 1193.45 342.954C1192.95 342.474 1192.7 341.838 1192.7 341.047C1192.7 339.348 1193.68 338.358 1195.64 338.076L1198.31 337.698C1198.31 336.415 1197.7 335.774 1196.48 335.774C1195.41 335.774 1194.44 336.143 1193.58 336.881V335.097C1194.53 334.534 1195.63 334.253 1196.87 334.253C1199.14 334.253 1200.28 335.372 1200.28 337.61V343.464ZM1198.31 339.043L1196.42 339.307C1195.83 339.383 1195.39 339.526 1195.09 339.737C1194.8 339.943 1194.65 340.306 1194.65 340.827C1194.65 341.208 1194.79 341.522 1195.06 341.768C1195.33 342.008 1195.7 342.128 1196.16 342.128C1196.78 342.128 1197.29 341.911 1197.69 341.478C1198.1 341.038 1198.31 340.487 1198.31 339.825V339.043ZM1215.21 342.163H1215.17V343.464H1213.13V330.14H1215.17V336.046H1215.21C1215.9 334.851 1216.92 334.253 1218.26 334.253C1219.4 334.253 1220.29 334.657 1220.93 335.466C1221.57 336.269 1221.89 337.347 1221.89 338.7C1221.89 340.206 1221.53 341.413 1220.81 342.321C1220.09 343.224 1219.11 343.675 1217.86 343.675C1216.69 343.675 1215.8 343.171 1215.21 342.163ZM1215.15 338.586V339.702C1215.15 340.359 1215.36 340.915 1215.78 341.372C1216.2 341.829 1216.73 342.058 1217.38 342.058C1218.13 342.058 1218.72 341.765 1219.15 341.179C1219.59 340.587 1219.8 339.764 1219.8 338.709C1219.8 337.824 1219.6 337.133 1219.2 336.635C1218.8 336.131 1218.26 335.879 1217.57 335.879C1216.84 335.879 1216.26 336.137 1215.81 336.652C1215.37 337.168 1215.15 337.813 1215.15 338.586ZM1231.9 336.406C1231.65 336.213 1231.3 336.116 1230.83 336.116C1230.23 336.116 1229.73 336.389 1229.32 336.934C1228.92 337.479 1228.72 338.22 1228.72 339.157V343.464H1226.68V334.464H1228.72V336.318H1228.75C1228.95 335.686 1229.26 335.193 1229.67 334.842C1230.08 334.484 1230.54 334.306 1231.05 334.306C1231.42 334.306 1231.7 334.361 1231.9 334.473V336.406ZM1243.89 343.464H1241.85V342.04H1241.81C1241.22 343.13 1240.3 343.675 1239.05 343.675C1236.93 343.675 1235.86 342.398 1235.86 339.843V334.464H1237.9V339.632C1237.9 341.249 1238.53 342.058 1239.77 342.058C1240.38 342.058 1240.87 341.835 1241.26 341.39C1241.65 340.944 1241.85 340.361 1241.85 339.641V334.464H1243.89V343.464ZM1254 343.367C1253.6 343.567 1253.07 343.666 1252.42 343.666C1250.68 343.666 1249.8 342.828 1249.8 341.152V336.064H1248.3V334.464H1249.8V332.381L1251.84 331.801V334.464H1254V336.064H1251.84V340.564C1251.84 341.097 1251.94 341.478 1252.13 341.706C1252.33 341.935 1252.65 342.049 1253.1 342.049C1253.45 342.049 1253.75 341.949 1254 341.75V343.367ZM1265.36 343.464H1263.39V342.058H1263.35C1262.73 343.136 1261.82 343.675 1260.62 343.675C1259.73 343.675 1259.04 343.435 1258.53 342.954C1258.04 342.474 1257.79 341.838 1257.79 341.047C1257.79 339.348 1258.77 338.358 1260.72 338.076L1263.39 337.698C1263.39 336.415 1262.79 335.774 1261.57 335.774C1260.49 335.774 1259.53 336.143 1258.67 336.881V335.097C1259.62 334.534 1260.71 334.253 1261.95 334.253C1264.23 334.253 1265.36 335.372 1265.36 337.61V343.464ZM1263.39 339.043L1261.5 339.307C1260.92 339.383 1260.48 339.526 1260.18 339.737C1259.88 339.943 1259.74 340.306 1259.74 340.827C1259.74 341.208 1259.87 341.522 1260.14 341.768C1260.42 342.008 1260.78 342.128 1261.24 342.128C1261.86 342.128 1262.38 341.911 1262.78 341.478C1263.19 341.038 1263.39 340.487 1263.39 339.825V339.043Z" fill="#787878"/>
<g filter="url(#filter6_d_7_296)">
<rect x="1444.84" y="157.078" width="363.446" height="217.704" rx="12.5244" fill="#17171C"/>
</g>
<rect x="1472.05" y="184.291" width="54.426" height="54.426" rx="8" fill="#0FFFB7" fill-opacity="0.18"/>
<path d="M1481.51 267.974H1473.78V254.001H1476.1V266.015H1481.51V267.974ZM1494.98 267.974H1492.72V266.395H1492.68C1492.03 267.604 1491.01 268.208 1489.62 268.208C1487.27 268.208 1486.09 266.792 1486.09 263.959V257.996H1488.35V263.725C1488.35 265.518 1489.04 266.415 1490.42 266.415C1491.09 266.415 1491.64 266.168 1492.07 265.674C1492.51 265.181 1492.72 264.534 1492.72 263.735V257.996H1494.98V267.974ZM1508.07 267.516C1507.27 267.977 1506.33 268.208 1505.24 268.208C1503.76 268.208 1502.56 267.747 1501.65 266.824C1500.74 265.895 1500.29 264.693 1500.29 263.219C1500.29 261.575 1500.77 260.256 1501.75 259.263C1502.73 258.262 1504.04 257.762 1505.67 257.762C1506.58 257.762 1507.39 257.921 1508.08 258.239V260.344C1507.39 259.824 1506.65 259.565 1505.86 259.565C1504.9 259.565 1504.12 259.889 1503.51 260.539C1502.9 261.182 1502.6 262.027 1502.6 263.073C1502.6 264.105 1502.88 264.921 1503.45 265.518C1504.03 266.116 1504.8 266.415 1505.77 266.415C1506.58 266.415 1507.35 266.126 1508.07 265.548V267.516ZM1519.1 260.149C1518.83 259.935 1518.44 259.828 1517.93 259.828C1517.26 259.828 1516.7 260.13 1516.25 260.734C1515.8 261.338 1515.58 262.16 1515.58 263.199V267.974H1513.32V257.996H1515.58V260.052H1515.62C1515.84 259.35 1516.17 258.805 1516.63 258.415C1517.09 258.019 1517.6 257.82 1518.17 257.82C1518.58 257.82 1518.89 257.882 1519.1 258.006V260.149ZM1527.94 268.208C1526.4 268.208 1525.17 267.743 1524.25 266.814C1523.34 265.879 1522.88 264.641 1522.88 263.102C1522.88 261.426 1523.35 260.117 1524.31 259.175C1525.27 258.233 1526.56 257.762 1528.19 257.762C1529.75 257.762 1530.96 258.22 1531.83 259.136C1532.7 260.052 1533.14 261.322 1533.14 262.946C1533.14 264.537 1532.67 265.814 1531.72 266.775C1530.79 267.73 1529.53 268.208 1527.94 268.208ZM1528.05 259.565C1527.17 259.565 1526.47 259.873 1525.96 260.49C1525.44 261.107 1525.19 261.958 1525.19 263.043C1525.19 264.089 1525.45 264.914 1525.97 265.518C1526.49 266.116 1527.18 266.415 1528.05 266.415C1528.94 266.415 1529.62 266.119 1530.1 265.528C1530.58 264.937 1530.82 264.096 1530.82 263.004C1530.82 261.906 1530.58 261.059 1530.1 260.461C1529.62 259.863 1528.94 259.565 1528.05 259.565ZM1549.2 267.974H1546.93V253.202H1549.2V267.974ZM1557.42 267.974H1555.15V257.996H1557.42V267.974ZM1559.04 252.909L1556.26 256.105H1554.58L1556.94 252.909H1559.04ZM1572.43 272.563H1570.17V266.259H1570.13C1569.45 267.558 1568.34 268.208 1566.79 268.208C1565.56 268.208 1564.58 267.763 1563.83 266.873C1563.09 265.976 1562.72 264.758 1562.72 263.219C1562.72 261.562 1563.13 260.24 1563.94 259.253C1564.76 258.259 1565.85 257.762 1567.23 257.762C1568.57 257.762 1569.54 258.301 1570.13 259.379H1570.17V257.996H1572.43V272.563ZM1570.2 263.433V262.147C1570.2 261.426 1569.97 260.815 1569.5 260.315C1569.04 259.815 1568.45 259.565 1567.74 259.565C1566.9 259.565 1566.24 259.88 1565.75 260.51C1565.27 261.133 1565.03 262.017 1565.03 263.16C1565.03 264.174 1565.26 264.969 1565.73 265.548C1566.2 266.126 1566.8 266.415 1567.54 266.415C1568.35 266.415 1569 266.132 1569.48 265.567C1569.96 265.002 1570.2 264.291 1570.2 263.433ZM1587.08 267.974H1584.82V266.395H1584.78C1584.13 267.604 1583.11 268.208 1581.72 268.208C1579.36 268.208 1578.19 266.792 1578.19 263.959V257.996H1580.45V263.725C1580.45 265.518 1581.14 266.415 1582.52 266.415C1583.19 266.415 1583.74 266.168 1584.17 265.674C1584.6 265.181 1584.82 264.534 1584.82 263.735V257.996H1587.08V267.974ZM1594.17 255.901C1593.8 255.901 1593.48 255.781 1593.21 255.54C1592.95 255.3 1592.82 254.995 1592.82 254.624C1592.82 254.254 1592.95 253.945 1593.21 253.699C1593.48 253.452 1593.8 253.328 1594.17 253.328C1594.55 253.328 1594.88 253.452 1595.14 253.699C1595.41 253.945 1595.54 254.254 1595.54 254.624C1595.54 254.975 1595.41 255.277 1595.14 255.53C1594.88 255.777 1594.55 255.901 1594.17 255.901ZM1595.29 267.974H1593.03V257.996H1595.29V267.974ZM1610.32 267.974H1608.06V266.278H1608.02C1607.29 267.565 1606.17 268.208 1604.65 268.208C1603.43 268.208 1602.44 267.763 1601.7 266.873C1600.97 265.976 1600.6 264.758 1600.6 263.219C1600.6 261.569 1601.01 260.247 1601.82 259.253C1602.64 258.259 1603.73 257.762 1605.08 257.762C1606.43 257.762 1607.41 258.301 1608.02 259.379H1608.06V253.202H1610.32V267.974ZM1608.08 263.414V262.108C1608.08 261.4 1607.85 260.799 1607.39 260.305C1606.93 259.811 1606.34 259.565 1605.63 259.565C1604.78 259.565 1604.12 259.88 1603.63 260.51C1603.15 261.14 1602.91 262.014 1602.91 263.131C1602.91 264.144 1603.14 264.947 1603.6 265.538C1604.07 266.122 1604.7 266.415 1605.48 266.415C1606.26 266.415 1606.88 266.132 1607.36 265.567C1607.84 264.995 1608.08 264.278 1608.08 263.414ZM1620.69 268.208C1619.15 268.208 1617.92 267.743 1616.99 266.814C1616.08 265.879 1615.62 264.641 1615.62 263.102C1615.62 261.426 1616.1 260.117 1617.05 259.175C1618.01 258.233 1619.31 257.762 1620.93 257.762C1622.49 257.762 1623.7 258.22 1624.57 259.136C1625.44 260.052 1625.88 261.322 1625.88 262.946C1625.88 264.537 1625.41 265.814 1624.47 266.775C1623.53 267.73 1622.27 268.208 1620.69 268.208ZM1620.79 259.565C1619.91 259.565 1619.21 259.873 1618.7 260.49C1618.18 261.107 1617.93 261.958 1617.93 263.043C1617.93 264.089 1618.19 264.914 1618.71 265.518C1619.23 266.116 1619.92 266.415 1620.79 266.415C1621.68 266.415 1622.37 266.119 1622.84 265.528C1623.32 264.937 1623.56 264.096 1623.56 263.004C1623.56 261.906 1623.32 261.059 1622.84 260.461C1622.37 259.863 1621.68 259.565 1620.79 259.565Z" fill="#787878"/>
<path d="M1495.34 204.494L1493.58 200.592C1494.89 200.706 1496.19 200.394 1497.22 199.721C1497.5 199.439 1497.87 199.226 1498.28 199.108C1498.69 198.989 1499.14 198.968 1499.57 199.047C1500.03 199.147 1500.4 199.432 1500.55 199.807C1500.62 200.149 1500.87 200.448 1501.23 200.624C1501.99 200.864 1502.84 200.816 1503.55 200.492C1503.9 200.392 1504.55 200.203 1504.63 200.294C1504.54 201.82 1504.03 203.306 1503.14 204.64C1501.96 204.943 1500.74 205.101 1499.51 205.111H1499.5C1498.09 205.096 1496.68 204.887 1495.34 204.494ZM1510.87 220.162C1510.72 221.238 1510.17 222.248 1509.31 223.055C1508.45 223.862 1507.31 224.427 1506.05 224.672C1501.59 225.591 1496.94 225.591 1492.48 224.672C1491.22 224.427 1490.08 223.862 1489.22 223.055C1488.36 222.248 1487.81 221.238 1487.66 220.162C1486.86 212.7 1493.13 207.354 1494.8 206.075C1496.31 206.504 1497.89 206.731 1499.48 206.747H1499.5C1500.98 206.737 1502.44 206.544 1503.85 206.173C1505.68 207.584 1511.65 212.831 1510.87 220.162ZM1499.68 214.832C1499.64 214.832 1499.62 214.816 1499.58 214.816C1498.17 214.226 1498.29 213.897 1498.4 213.602C1498.48 213.42 1498.63 213.263 1498.82 213.151C1499 213.04 1499.23 212.98 1499.46 212.979H1499.48C1499.71 212.97 1499.94 213.02 1500.13 213.123C1500.32 213.226 1500.47 213.376 1500.56 213.553C1500.76 213.971 1501.33 214.176 1501.83 214.012C1502.08 213.933 1502.27 213.775 1502.37 213.575C1502.48 213.375 1502.48 213.148 1502.38 212.946C1502.05 212.227 1501.33 211.681 1500.44 211.47V210.831C1500.44 210.378 1500 210.012 1499.46 210.011C1499.2 210.009 1498.95 210.094 1498.77 210.249C1498.58 210.403 1498.48 210.613 1498.48 210.831V211.487C1497.57 211.737 1496.85 212.332 1496.54 213.094C1495.76 215.078 1498.05 216.013 1498.8 216.308C1498.83 216.325 1498.85 216.341 1498.89 216.341C1500.32 216.931 1500.66 217.21 1500.52 217.702C1500.42 218.046 1499.91 218.194 1499.5 218.227H1499.36C1499.07 218.25 1498.78 218.202 1498.52 218.088C1498.27 217.975 1498.05 217.801 1497.91 217.587C1497.7 217.172 1497.13 216.976 1496.63 217.146C1496.14 217.317 1495.89 217.791 1496.09 218.211C1496.52 219.04 1497.42 219.633 1498.48 219.785V220.113C1498.48 220.331 1498.58 220.541 1498.77 220.695C1498.95 220.85 1499.2 220.935 1499.46 220.933C1500 220.932 1500.44 220.565 1500.44 220.113V219.72C1500.92 219.625 1501.35 219.423 1501.7 219.137C1502.05 218.851 1502.3 218.491 1502.42 218.096C1502.97 216.177 1500.91 215.341 1499.68 214.832Z" fill="#00A861"/>
<path d="M1475.71 337.189C1474.82 337.189 1474.11 336.904 1473.58 336.336C1473.06 335.762 1472.79 334.997 1472.79 334.042C1472.79 332.999 1473.07 332.179 1473.63 331.581C1474.19 330.978 1474.94 330.676 1475.89 330.676C1476.81 330.676 1477.53 330.954 1478.03 331.511C1478.54 332.068 1478.79 332.85 1478.79 333.858C1478.79 334.865 1478.51 335.674 1477.94 336.283C1477.37 336.887 1476.63 337.189 1475.71 337.189ZM1475.83 331.906C1475.35 331.906 1474.97 332.091 1474.69 332.46C1474.41 332.829 1474.28 333.336 1474.28 333.981C1474.28 334.613 1474.41 335.106 1474.68 335.457C1474.96 335.809 1475.33 335.984 1475.81 335.984C1476.28 335.984 1476.65 335.803 1476.92 335.44C1477.19 335.07 1477.33 334.561 1477.33 333.91C1477.33 333.277 1477.19 332.785 1476.92 332.434C1476.66 332.082 1476.3 331.906 1475.83 331.906ZM1484.24 330.86L1476.16 343.552H1474.9L1482.98 330.86H1484.24ZM1483.11 343.657C1482.22 343.657 1481.51 343.373 1480.98 342.805C1480.46 342.231 1480.19 341.466 1480.19 340.511C1480.19 339.468 1480.47 338.648 1481.03 338.05C1481.59 337.446 1482.35 337.145 1483.29 337.145C1484.21 337.145 1484.93 337.423 1485.43 337.98C1485.94 338.536 1486.19 339.318 1486.19 340.326C1486.19 341.334 1485.91 342.143 1485.34 342.752C1484.77 343.356 1484.03 343.657 1483.11 343.657ZM1483.23 338.375C1482.75 338.375 1482.37 338.56 1482.09 338.929C1481.81 339.298 1481.68 339.805 1481.68 340.449C1481.68 341.082 1481.81 341.574 1482.08 341.926C1482.36 342.277 1482.73 342.453 1483.21 342.453C1483.68 342.453 1484.05 342.272 1484.32 341.908C1484.59 341.539 1484.73 341.029 1484.73 340.379C1484.73 339.746 1484.59 339.254 1484.32 338.902C1484.06 338.551 1483.7 338.375 1483.23 338.375ZM1507.05 343.464H1505.02V341.935H1504.98C1504.32 343.095 1503.31 343.675 1501.95 343.675C1500.84 343.675 1499.95 343.274 1499.29 342.471C1498.62 341.662 1498.29 340.564 1498.29 339.175C1498.29 337.687 1498.66 336.494 1499.39 335.598C1500.13 334.701 1501.11 334.253 1502.34 334.253C1503.55 334.253 1504.43 334.739 1504.98 335.712H1505.02V330.14H1507.05V343.464ZM1505.04 339.351V338.173C1505.04 337.534 1504.83 336.992 1504.42 336.547C1504 336.102 1503.47 335.879 1502.83 335.879C1502.07 335.879 1501.46 336.163 1501.03 336.732C1500.59 337.3 1500.38 338.088 1500.38 339.096C1500.38 340.01 1500.58 340.734 1501 341.267C1501.42 341.794 1501.99 342.058 1502.7 342.058C1503.39 342.058 1503.96 341.803 1504.39 341.293C1504.83 340.777 1505.04 340.13 1505.04 339.351ZM1519.33 343.464H1517.35V342.058H1517.31C1516.69 343.136 1515.78 343.675 1514.58 343.675C1513.7 343.675 1513 343.435 1512.5 342.954C1512 342.474 1511.75 341.838 1511.75 341.047C1511.75 339.348 1512.73 338.358 1514.69 338.076L1517.36 337.698C1517.36 336.415 1516.75 335.774 1515.53 335.774C1514.46 335.774 1513.49 336.143 1512.63 336.881V335.097C1513.58 334.534 1514.67 334.253 1515.92 334.253C1518.19 334.253 1519.33 335.372 1519.33 337.61V343.464ZM1517.36 339.043L1515.47 339.307C1514.88 339.383 1514.44 339.526 1514.14 339.737C1513.85 339.943 1513.7 340.306 1513.7 340.827C1513.7 341.208 1513.84 341.522 1514.11 341.768C1514.38 342.008 1514.75 342.128 1515.2 342.128C1515.83 342.128 1516.34 341.911 1516.74 341.478C1517.15 341.038 1517.36 340.487 1517.36 339.825V339.043ZM1537.4 336.406C1537.15 336.213 1536.8 336.116 1536.34 336.116C1535.73 336.116 1535.23 336.389 1534.82 336.934C1534.42 337.479 1534.22 338.22 1534.22 339.157V343.464H1532.18V334.464H1534.22V336.318H1534.25C1534.45 335.686 1534.76 335.193 1535.17 334.842C1535.58 334.484 1536.05 334.306 1536.56 334.306C1536.93 334.306 1537.21 334.361 1537.4 334.473V336.406ZM1549 339.518H1542.87C1542.89 340.35 1543.15 340.991 1543.63 341.443C1544.13 341.894 1544.8 342.119 1545.65 342.119C1546.62 342.119 1547.5 341.832 1548.3 341.258V342.901C1547.48 343.417 1546.4 343.675 1545.05 343.675C1543.72 343.675 1542.68 343.268 1541.93 342.453C1541.18 341.633 1540.8 340.482 1540.8 338.999C1540.8 337.599 1541.22 336.459 1542.04 335.58C1542.87 334.695 1543.91 334.253 1545.14 334.253C1546.37 334.253 1547.32 334.649 1547.99 335.44C1548.67 336.231 1549 337.329 1549 338.735V339.518ZM1547.03 338.076C1547.03 337.344 1546.86 336.776 1546.52 336.371C1546.18 335.961 1545.71 335.756 1545.11 335.756C1544.52 335.756 1544.03 335.97 1543.62 336.398C1543.21 336.825 1542.96 337.385 1542.87 338.076H1547.03ZM1560.09 343.051C1559.37 343.467 1558.51 343.675 1557.53 343.675C1556.19 343.675 1555.12 343.259 1554.3 342.427C1553.48 341.589 1553.07 340.505 1553.07 339.175C1553.07 337.693 1553.5 336.503 1554.38 335.607C1555.27 334.704 1556.45 334.253 1557.93 334.253C1558.75 334.253 1559.47 334.397 1560.1 334.684V336.582C1559.47 336.113 1558.8 335.879 1558.09 335.879C1557.23 335.879 1556.53 336.172 1555.97 336.758C1555.42 337.338 1555.15 338.1 1555.15 339.043C1555.15 339.975 1555.41 340.71 1555.92 341.249C1556.44 341.788 1557.14 342.058 1558.01 342.058C1558.75 342.058 1559.44 341.797 1560.09 341.276V343.051ZM1572.44 339.518H1566.3C1566.33 340.35 1566.58 340.991 1567.07 341.443C1567.56 341.894 1568.23 342.119 1569.09 342.119C1570.05 342.119 1570.93 341.832 1571.74 341.258V342.901C1570.91 343.417 1569.83 343.675 1568.48 343.675C1567.16 343.675 1566.12 343.268 1565.36 342.453C1564.61 341.633 1564.24 340.482 1564.24 338.999C1564.24 337.599 1564.65 336.459 1565.48 335.58C1566.31 334.695 1567.34 334.253 1568.57 334.253C1569.8 334.253 1570.75 334.649 1571.43 335.44C1572.1 336.231 1572.44 337.329 1572.44 338.735V339.518ZM1570.47 338.076C1570.46 337.344 1570.29 336.776 1569.95 336.371C1569.61 335.961 1569.14 335.756 1568.54 335.756C1567.96 335.756 1567.46 335.97 1567.05 336.398C1566.65 336.825 1566.4 337.385 1566.3 338.076H1570.47ZM1578.11 332.574C1577.78 332.574 1577.49 332.466 1577.25 332.249C1577.01 332.032 1576.9 331.757 1576.9 331.423C1576.9 331.089 1577.01 330.811 1577.25 330.588C1577.49 330.365 1577.78 330.254 1578.11 330.254C1578.45 330.254 1578.75 330.365 1578.99 330.588C1579.23 330.811 1579.35 331.089 1579.35 331.423C1579.35 331.739 1579.23 332.012 1578.99 332.24C1578.75 332.463 1578.45 332.574 1578.11 332.574ZM1579.12 343.464H1577.08V334.464H1579.12V343.464ZM1589.24 343.367C1588.84 343.567 1588.31 343.666 1587.66 343.666C1585.92 343.666 1585.05 342.828 1585.05 341.152V336.064H1583.54V334.464H1585.05V332.381L1587.08 331.801V334.464H1589.24V336.064H1587.08V340.564C1587.08 341.097 1587.18 341.478 1587.37 341.706C1587.57 341.935 1587.89 342.049 1588.34 342.049C1588.69 342.049 1588.99 341.949 1589.24 341.75V343.367ZM1600.6 343.464H1598.63V342.058H1598.59C1597.97 343.136 1597.06 343.675 1595.86 343.675C1594.97 343.675 1594.28 343.435 1593.77 342.954C1593.28 342.474 1593.03 341.838 1593.03 341.047C1593.03 339.348 1594.01 338.358 1595.96 338.076L1598.64 337.698C1598.64 336.415 1598.03 335.774 1596.81 335.774C1595.73 335.774 1594.77 336.143 1593.91 336.881V335.097C1594.86 334.534 1595.95 334.253 1597.19 334.253C1599.47 334.253 1600.6 335.372 1600.6 337.61V343.464ZM1598.64 339.043L1596.75 339.307C1596.16 339.383 1595.72 339.526 1595.42 339.737C1595.13 339.943 1594.98 340.306 1594.98 340.827C1594.98 341.208 1595.11 341.522 1595.38 341.768C1595.66 342.008 1596.02 342.128 1596.48 342.128C1597.1 342.128 1597.62 341.911 1598.02 341.478C1598.43 341.038 1598.64 340.487 1598.64 339.825V339.043ZM1615.53 342.163H1615.5V343.464H1613.46V330.14H1615.5V336.046H1615.53C1616.23 334.851 1617.25 334.253 1618.59 334.253C1619.73 334.253 1620.61 334.657 1621.25 335.466C1621.9 336.269 1622.22 337.347 1622.22 338.7C1622.22 340.206 1621.86 341.413 1621.14 342.321C1620.42 343.224 1619.43 343.675 1618.19 343.675C1617.01 343.675 1616.13 343.171 1615.53 342.163ZM1615.48 338.586V339.702C1615.48 340.359 1615.69 340.915 1616.1 341.372C1616.52 341.829 1617.06 342.058 1617.7 342.058C1618.46 342.058 1619.05 341.765 1619.48 341.179C1619.91 340.587 1620.13 339.764 1620.13 338.709C1620.13 337.824 1619.93 337.133 1619.52 336.635C1619.12 336.131 1618.58 335.879 1617.9 335.879C1617.17 335.879 1616.58 336.137 1616.14 336.652C1615.7 337.168 1615.48 337.813 1615.48 338.586ZM1632.22 336.406C1631.98 336.213 1631.62 336.116 1631.16 336.116C1630.56 336.116 1630.05 336.389 1629.65 336.934C1629.24 337.479 1629.04 338.22 1629.04 339.157V343.464H1627V334.464H1629.04V336.318H1629.08C1629.28 335.686 1629.58 335.193 1629.99 334.842C1630.41 334.484 1630.87 334.306 1631.38 334.306C1631.75 334.306 1632.03 334.361 1632.22 334.473V336.406ZM1644.21 343.464H1642.17V342.04H1642.14C1641.55 343.13 1640.63 343.675 1639.38 343.675C1637.25 343.675 1636.19 342.398 1636.19 339.843V334.464H1638.23V339.632C1638.23 341.249 1638.85 342.058 1640.1 342.058C1640.7 342.058 1641.2 341.835 1641.59 341.39C1641.98 340.944 1642.17 340.361 1642.17 339.641V334.464H1644.21V343.464ZM1654.32 343.367C1653.92 343.567 1653.4 343.666 1652.75 343.666C1651 343.666 1650.13 342.828 1650.13 341.152V336.064H1648.63V334.464H1650.13V332.381L1652.17 331.801V334.464H1654.32V336.064H1652.17V340.564C1652.17 341.097 1652.27 341.478 1652.46 341.706C1652.65 341.935 1652.97 342.049 1653.43 342.049C1653.77 342.049 1654.07 341.949 1654.32 341.75V343.367ZM1665.69 343.464H1663.71V342.058H1663.68C1663.05 343.136 1662.14 343.675 1660.94 343.675C1660.06 343.675 1659.36 343.435 1658.86 342.954C1658.36 342.474 1658.11 341.838 1658.11 341.047C1658.11 339.348 1659.09 338.358 1661.05 338.076L1663.72 337.698C1663.72 336.415 1663.11 335.774 1661.89 335.774C1660.82 335.774 1659.85 336.143 1658.99 336.881V335.097C1659.94 334.534 1661.04 334.253 1662.28 334.253C1664.55 334.253 1665.69 335.372 1665.69 337.61V343.464ZM1663.72 339.043L1661.83 339.307C1661.24 339.383 1660.8 339.526 1660.5 339.737C1660.21 339.943 1660.06 340.306 1660.06 340.827C1660.06 341.208 1660.2 341.522 1660.47 341.768C1660.74 342.008 1661.11 342.128 1661.57 342.128C1662.19 342.128 1662.7 341.911 1663.1 341.478C1663.51 341.038 1663.72 340.487 1663.72 339.825V339.043Z" fill="#787878"/>
<g clip-path="url(#clip4_7_296)">
<path d="M153.497 96.2476H135.566V98.0226C135.566 104.874 141.196 110.448 148.118 110.448H153.497C158.446 110.448 162.463 114.424 162.463 119.323C162.463 124.222 158.446 128.198 153.497 128.198H139.152V119.323C139.152 112.471 133.522 106.898 126.6 106.898H124.807V119.323C124.807 126.174 130.438 131.748 137.359 131.748H139.152H153.497C160.418 131.748 166.049 126.174 166.049 119.323C166.049 112.471 160.418 106.898 153.497 106.898H148.118C143.778 106.898 140.156 103.845 139.332 99.7976H153.497C164.363 99.7976 173.221 108.566 173.221 119.323C173.221 130.079 164.363 138.848 153.497 138.848H139.152C131.227 138.848 124.807 145.202 124.807 153.048V167.248C132.733 167.248 139.152 160.893 139.152 153.048V142.398H153.497C166.336 142.398 176.807 132.032 176.807 119.323C176.807 106.614 166.336 96.2476 153.497 96.2476ZM135.566 128.02C131.478 127.204 128.394 123.618 128.394 119.323V110.625C132.482 111.442 135.566 115.027 135.566 119.323V128.02ZM135.566 153.048C135.566 157.663 132.554 161.639 128.394 163.094V153.048C128.394 148.433 131.406 144.457 135.566 143.001V153.048Z" fill="#07E7A4"/>
</g>
</g>
<defs>
<filter id="filter0_f_7_296" x="34.3534" y="-124.12" width="1902.61" height="1437.32" filterUnits="userSpaceOnUse" color-interpolation-filters="sRGB">
<feFlood flood-opacity="0" result="BackgroundImageFix"/>
<feBlend mode="normal" in="SourceGraphic" in2="BackgroundImageFix" result="shape"/>
<feGaussianBlur stdDeviation="138.071" result="effect1_foregroundBlur_7_296"/>
</filter>
<filter id="filter1_d_7_296" x="90.4298" y="372.601" width="102.69" height="102.684" filterUnits="userSpaceOnUse" color-interpolation-filters="sRGB">
<feFlood flood-opacity="0" result="BackgroundImageFix"/>
<feColorMatrix in="SourceAlpha" type="matrix" values="0 0 0 0 0 0 0 0 0 0 0 0 0 0 0 0 0 0 127 0" result="hardAlpha"/>
<feOffset dy="4.89151"/>
<feGaussianBlur stdDeviation="9.78301"/>
<feComposite in2="hardAlpha" operator="out"/>
<feColorMatrix type="matrix" values="0 0 0 0 0.0588235 0 0 0 0 1 0 0 0 0 0.604706 0 0 0 0.25 0"/>
<feBlend mode="normal" in2="BackgroundImageFix" result="effect1_dropShadow_7_296"/>
<feBlend mode="normal" in="SourceGraphic" in2="effect1_dropShadow_7_296" result="shape"/>
</filter>
<filter id="filter2_d_7_296" x="235.937" y="404.782" width="1577.87" height="607.316" filterUnits="userSpaceOnUse" color-interpolation-filters="sRGB">
<feFlood flood-opacity="0" result="BackgroundImageFix"/>
<feColorMatrix in="SourceAlpha" type="matrix" values="0 0 0 0 0 0 0 0 0 0 0 0 0 0 0 0 0 0 127 0" result="hardAlpha"/>
<feOffset dy="5.52282"/>
<feGaussianBlur stdDeviation="2.76141"/>
<feComposite in2="hardAlpha" operator="out"/>
<feColorMatrix type="matrix" values="0 0 0 0 0 0 0 0 0 0 0 0 0 0 0 0 0 0 0.25 0"/>
<feBlend mode="normal" in2="BackgroundImageFix" result="effect1_dropShadow_7_296"/>
<feBlend mode="normal" in="SourceGraphic" in2="effect1_dropShadow_7_296" result="shape"/>
</filter>
<filter id="filter3_d_7_296" x="236.45" y="157.078" width="373.465" height="227.723" filterUnits="userSpaceOnUse" color-interpolation-filters="sRGB">
<feFlood flood-opacity="0" result="BackgroundImageFix"/>
<feColorMatrix in="SourceAlpha" type="matrix" values="0 0 0 0 0 0 0 0 0 0 0 0 0 0 0 0 0 0 127 0" result="hardAlpha"/>
<feOffset dy="5.00975"/>
<feGaussianBlur stdDeviation="2.50488"/>
<feComposite in2="hardAlpha" operator="out"/>
<feColorMatrix type="matrix" values="0 0 0 0 0 0 0 0 0 0 0 0 0 0 0 0 0 0 0.25 0"/>
<feBlend mode="normal" in2="BackgroundImageFix" result="effect1_dropShadow_7_296"/>
<feBlend mode="normal" in="SourceGraphic" in2="effect1_dropShadow_7_296" result="shape"/>
</filter>
<filter id="filter4_d_7_296" x="637.576" y="157.078" width="373.465" height="227.723" filterUnits="userSpaceOnUse" color-interpolation-filters="sRGB">
<feFlood flood-opacity="0" result="BackgroundImageFix"/>
<feColorMatrix in="SourceAlpha" type="matrix" values="0 0 0 0 0 0 0 0 0 0 0 0 0 0 0 0 0 0 127 0" result="hardAlpha"/>
<feOffset dy="5.00975"/>
<feGaussianBlur stdDeviation="2.50488"/>
<feComposite in2="hardAlpha" operator="out"/>
<feColorMatrix type="matrix" values="0 0 0 0 0 0 0 0 0 0 0 0 0 0 0 0 0 0 0.25 0"/>
<feBlend mode="normal" in2="BackgroundImageFix" result="effect1_dropShadow_7_296"/>
<feBlend mode="normal" in="SourceGraphic" in2="effect1_dropShadow_7_296" result="shape"/>
</filter>
<filter id="filter5_d_7_296" x="1038.7" y="157.078" width="373.465" height="227.723" filterUnits="userSpaceOnUse" color-interpolation-filters="sRGB">
<feFlood flood-opacity="0" result="BackgroundImageFix"/>
<feColorMatrix in="SourceAlpha" type="matrix" values="0 0 0 0 0 0 0 0 0 0 0 0 0 0 0 0 0 0 127 0" result="hardAlpha"/>
<feOffset dy="5.00975"/>
<feGaussianBlur stdDeviation="2.50488"/>
<feComposite in2="hardAlpha" operator="out"/>
<feColorMatrix type="matrix" values="0 0 0 0 0 0 0 0 0 0 0 0 0 0 0 0 0 0 0.25 0"/>
<feBlend mode="normal" in2="BackgroundImageFix" result="effect1_dropShadow_7_296"/>
<feBlend mode="normal" in="SourceGraphic" in2="effect1_dropShadow_7_296" result="shape"/>
</filter>
<filter id="filter6_d_7_296" x="1439.83" y="157.078" width="373.465" height="227.723" filterUnits="userSpaceOnUse" color-interpolation-filters="sRGB">
<feFlood flood-opacity="0" result="BackgroundImageFix"/>
<feColorMatrix in="SourceAlpha" type="matrix" values="0 0 0 0 0 0 0 0 0 0 0 0 0 0 0 0 0 0 127 0" result="hardAlpha"/>
<feOffset dy="5.00975"/>
<feGaussianBlur stdDeviation="2.50488"/>
<feComposite in2="hardAlpha" operator="out"/>
<feColorMatrix type="matrix" values="0 0 0 0 0 0 0 0 0 0 0 0 0 0 0 0 0 0 0.25 0"/>
<feBlend mode="normal" in2="BackgroundImageFix" result="effect1_dropShadow_7_296"/>
<feBlend mode="normal" in="SourceGraphic" in2="effect1_dropShadow_7_296" result="shape"/>
</filter>
<linearGradient id="paint0_linear_7_296" x1="-209.308" y1="-90.1856" x2="2335.5" y2="1305.75" gradientUnits="userSpaceOnUse">
<stop offset="0.0364583" stop-color="#00F79E"/>
<stop offset="1" stop-color="#640DF1"/>
</linearGradient>
<linearGradient id="paint1_linear_7_296" x1="70.6526" y1="354.99" x2="1700.68" y2="1676.6" gradientUnits="userSpaceOnUse">
<stop offset="0.0364583" stop-color="#00F79E"/>
<stop offset="1" stop-color="#640DF1"/>
</linearGradient>
<clipPath id="clip0_7_296">
<rect x="77.1553" y="42.9457" width="1767.3" height="994.109" rx="47.7247" fill="white"/>
</clipPath>
<clipPath id="clip1_7_296">
<rect width="35" height="35" fill="white" transform="translate(124.275 401.552)"/>
</clipPath>
<clipPath id="clip2_7_296">
<rect width="35" height="35" fill="white" transform="translate(124.807 289.464)"/>
</clipPath>
<clipPath id="clip3_7_296">
<rect width="29.9343" height="29.0272" fill="white" transform="translate(682.047 196.083)"/>
</clipPath>
<clipPath id="clip4_7_296">
<rect width="52" height="71" fill="white" transform="translate(124.807 96.2476)"/>
</clipPath>
</defs>
</svg>
